M48
; DRILL file {KiCad (5.1.6)-1} date 07/24/20 14:38:26
; FORMAT={-:-/ absolute / inch / decimal}
; #@! TF.CreationDate,2020-07-24T14:38:26-07:00
; #@! TF.GenerationSoftware,Kicad,Pcbnew,(5.1.6)-1
; #@! TF.FileFunction,Plated,1,2,PTH
FMAT,2
INCH
T1C0.0157
T2C0.0315
T3C0.0354
T4C0.0512
T5C0.2087
%
G90
G05
T1
X3.62Y-3.2
X3.62Y-3.5
X3.62Y-4.59
X3.63Y-2.87
X3.63Y-4.3
X3.63Y-4.45
X3.71Y-4.75
X3.84Y-2.22
X3.87Y-2.53
X4.35Y-1.97
X4.35Y-2.47
X4.35Y-2.57
X4.35Y-3.67
X4.35Y-4.37
X4.35Y-4.97
X4.36Y-1.87
X4.36Y-3.07
X4.36Y-3.17
X4.36Y-4.87
X4.36Y-5.47
X4.36Y-5.57
T2
X5.54Y-3.02
X5.54Y-3.42
X5.54Y-2.42
X5.54Y-2.82
X4.24Y-5.42
X4.24Y-5.82
X4.24Y-3.02
X4.24Y-3.42
X5.54Y-4.22
X5.54Y-4.62
X4.24Y-4.22
X4.24Y-4.62
X4.24Y-3.62
X4.24Y-4.02
X5.54Y-5.42
X5.54Y-5.82
X4.24Y-1.82
X4.24Y-2.22
X5.54Y-1.82
X5.54Y-2.22
X4.24Y-2.42
X4.24Y-2.82
X5.54Y-4.82
X5.54Y-5.22
X5.54Y-3.62
X5.54Y-4.02
X4.24Y-4.82
X4.24Y-5.22
T3
X4.49Y-5.42
X4.49Y-5.52
X5.29Y-5.42
X5.29Y-5.52
X4.49Y-4.82
X4.49Y-4.92
X4.49Y-4.22
X4.49Y-4.32
X5.29Y-4.82
X5.29Y-4.92
X4.49Y-3.02
X4.49Y-3.12
X4.49Y-3.62
X4.49Y-3.72
X5.29Y-3.62
X5.29Y-3.72
X4.49Y-2.42
X4.49Y-2.52
X4.49Y-1.82
X4.49Y-1.92
X5.29Y-4.22
X5.29Y-4.32
X5.29Y-1.82
X5.29Y-1.92
X5.29Y-3.02
X5.29Y-3.12
X5.29Y-2.42
X5.29Y-2.52
T4
X3.515Y-3.895
X3.515Y-4.045
X3.515Y-3.12
X3.515Y-3.27
X3.515Y-3.42
X3.515Y-3.57
X3.515Y-3.72
X3.515Y-2.495
X3.515Y-2.645
X3.515Y-4.22
X3.515Y-4.37
X3.515Y-4.52
X3.515Y-4.67
X3.515Y-4.82
X3.515Y-2.795
X3.515Y-2.945
T5
X3.57Y-5.67
X3.57Y-1.93
X5.93Y-5.67
X5.93Y-1.93
T0
M30
