%TF.GenerationSoftware,KiCad,Pcbnew,(5.1.6)-1*%
%TF.CreationDate,2020-07-24T14:38:16-07:00*%
%TF.ProjectId,BPEM488 Output LEDs,4250454d-3438-4382-904f-757470757420,rev?*%
%TF.SameCoordinates,Original*%
%TF.FileFunction,Soldermask,Bot*%
%TF.FilePolarity,Negative*%
%FSLAX46Y46*%
G04 Gerber Fmt 4.6, Leading zero omitted, Abs format (unit mm)*
G04 Created by KiCad (PCBNEW (5.1.6)-1) date 2020-07-24 14:38:16*
%MOMM*%
%LPD*%
G01*
G04 APERTURE LIST*
%ADD10R,1.900000X1.900000*%
%ADD11C,1.900000*%
%ADD12C,2.700000*%
%ADD13R,2.700000X2.700000*%
%ADD14O,1.700000X1.700000*%
%ADD15C,1.700000*%
G04 APERTURE END LIST*
D10*
%TO.C,D1*%
X114046000Y-48768000D03*
D11*
X114046000Y-46228000D03*
%TD*%
%TO.C,D2*%
X114046000Y-61468000D03*
D10*
X114046000Y-64008000D03*
%TD*%
D11*
%TO.C,D3*%
X114046000Y-76708000D03*
D10*
X114046000Y-79248000D03*
%TD*%
D11*
%TO.C,D4*%
X114046000Y-91948000D03*
D10*
X114046000Y-94488000D03*
%TD*%
D11*
%TO.C,D5*%
X114046000Y-107188000D03*
D10*
X114046000Y-109728000D03*
%TD*%
%TO.C,D6*%
X114046000Y-124968000D03*
D11*
X114046000Y-122428000D03*
%TD*%
D10*
%TO.C,D7*%
X114046000Y-140208000D03*
D11*
X114046000Y-137668000D03*
%TD*%
D10*
%TO.C,D8*%
X134366000Y-48768000D03*
D11*
X134366000Y-46228000D03*
%TD*%
D10*
%TO.C,D9*%
X134366000Y-64008000D03*
D11*
X134366000Y-61468000D03*
%TD*%
%TO.C,D10*%
X134366000Y-76708000D03*
D10*
X134366000Y-79248000D03*
%TD*%
D11*
%TO.C,D11*%
X134366000Y-91948000D03*
D10*
X134366000Y-94488000D03*
%TD*%
%TO.C,D12*%
X134366000Y-109728000D03*
D11*
X134366000Y-107188000D03*
%TD*%
%TO.C,D13*%
X134366000Y-122428000D03*
D10*
X134366000Y-124968000D03*
%TD*%
%TO.C,D14*%
X134366000Y-140208000D03*
D11*
X134366000Y-137668000D03*
%TD*%
D12*
%TO.C,J1*%
X89281000Y-74803000D03*
D13*
X89281000Y-70993000D03*
%TD*%
%TO.C,J2*%
X89281000Y-79248000D03*
D12*
X89281000Y-94488000D03*
X89281000Y-90678000D03*
X89281000Y-83058000D03*
X89281000Y-86868000D03*
%TD*%
D13*
%TO.C,J3*%
X89281000Y-98933000D03*
D12*
X89281000Y-102743000D03*
%TD*%
%TO.C,J4*%
X89281000Y-114808000D03*
X89281000Y-110998000D03*
X89281000Y-118618000D03*
X89281000Y-122428000D03*
D13*
X89281000Y-107188000D03*
%TD*%
D12*
%TO.C,J5*%
X89281000Y-67183000D03*
D13*
X89281000Y-63373000D03*
%TD*%
D14*
%TO.C,R1*%
X107696000Y-46228000D03*
D15*
X107696000Y-56388000D03*
%TD*%
%TO.C,R2*%
X107696000Y-71628000D03*
D14*
X107696000Y-61468000D03*
%TD*%
%TO.C,R3*%
X107696000Y-76708000D03*
D15*
X107696000Y-86868000D03*
%TD*%
%TO.C,R4*%
X107696000Y-102108000D03*
D14*
X107696000Y-91948000D03*
%TD*%
%TO.C,R5*%
X107696000Y-107188000D03*
D15*
X107696000Y-117348000D03*
%TD*%
%TO.C,R6*%
X107696000Y-132588000D03*
D14*
X107696000Y-122428000D03*
%TD*%
%TO.C,R7*%
X107696000Y-137668000D03*
D15*
X107696000Y-147828000D03*
%TD*%
%TO.C,R8*%
X140716000Y-46228000D03*
D14*
X140716000Y-56388000D03*
%TD*%
%TO.C,R9*%
X140716000Y-71628000D03*
D15*
X140716000Y-61468000D03*
%TD*%
%TO.C,R10*%
X140716000Y-76708000D03*
D14*
X140716000Y-86868000D03*
%TD*%
%TO.C,R11*%
X140716000Y-102108000D03*
D15*
X140716000Y-91948000D03*
%TD*%
%TO.C,R12*%
X140716000Y-107188000D03*
D14*
X140716000Y-117348000D03*
%TD*%
D15*
%TO.C,R13*%
X140716000Y-122428000D03*
D14*
X140716000Y-132588000D03*
%TD*%
%TO.C,R14*%
X140716000Y-147828000D03*
D15*
X140716000Y-137668000D03*
%TD*%
M02*
