%TF.GenerationSoftware,KiCad,Pcbnew,(5.1.6)-1*%
%TF.CreationDate,2020-07-24T14:38:16-07:00*%
%TF.ProjectId,BPEM488 Output LEDs,4250454d-3438-4382-904f-757470757420,rev?*%
%TF.SameCoordinates,Original*%
%TF.FileFunction,Copper,L2,Bot*%
%TF.FilePolarity,Positive*%
%FSLAX46Y46*%
G04 Gerber Fmt 4.6, Leading zero omitted, Abs format (unit mm)*
G04 Created by KiCad (PCBNEW (5.1.6)-1) date 2020-07-24 14:38:16*
%MOMM*%
%LPD*%
G01*
G04 APERTURE LIST*
%TA.AperFunction,ViaPad*%
%ADD10C,5.300000*%
%TD*%
%TA.AperFunction,ComponentPad*%
%ADD11R,1.800000X1.800000*%
%TD*%
%TA.AperFunction,ComponentPad*%
%ADD12C,1.800000*%
%TD*%
%TA.AperFunction,ComponentPad*%
%ADD13C,2.600000*%
%TD*%
%TA.AperFunction,ComponentPad*%
%ADD14R,2.600000X2.600000*%
%TD*%
%TA.AperFunction,ComponentPad*%
%ADD15O,1.600000X1.600000*%
%TD*%
%TA.AperFunction,ComponentPad*%
%ADD16C,1.600000*%
%TD*%
%TA.AperFunction,ViaPad*%
%ADD17C,0.800000*%
%TD*%
%TA.AperFunction,Conductor*%
%ADD18C,1.000000*%
%TD*%
%TA.AperFunction,Conductor*%
%ADD19C,0.254000*%
%TD*%
G04 APERTURE END LIST*
D10*
%TO.N,*%
%TO.C,REF\u002A\u002A*%
X90678000Y-144018000D03*
%TD*%
%TO.N,*%
%TO.C,REF\u002A\u002A*%
X150622000Y-144018000D03*
%TD*%
%TO.N,*%
%TO.C,REF\u002A\u002A*%
X90678000Y-49022000D03*
%TD*%
%TO.N,*%
%TO.C,REF\u002A\u002A*%
X150622000Y-49022000D03*
%TD*%
D11*
%TO.P,D1,1*%
%TO.N,Net-(D1-Pad1)*%
X114046000Y-48768000D03*
D12*
%TO.P,D1,2*%
%TO.N,Net-(D1-Pad2)*%
X114046000Y-46228000D03*
%TD*%
%TO.P,D2,2*%
%TO.N,Net-(D2-Pad2)*%
X114046000Y-61468000D03*
D11*
%TO.P,D2,1*%
%TO.N,Net-(D2-Pad1)*%
X114046000Y-64008000D03*
%TD*%
D12*
%TO.P,D3,2*%
%TO.N,Net-(D3-Pad2)*%
X114046000Y-76708000D03*
D11*
%TO.P,D3,1*%
%TO.N,Net-(D3-Pad1)*%
X114046000Y-79248000D03*
%TD*%
D12*
%TO.P,D4,2*%
%TO.N,Net-(D4-Pad2)*%
X114046000Y-91948000D03*
D11*
%TO.P,D4,1*%
%TO.N,Net-(D4-Pad1)*%
X114046000Y-94488000D03*
%TD*%
D12*
%TO.P,D5,2*%
%TO.N,Net-(D5-Pad2)*%
X114046000Y-107188000D03*
D11*
%TO.P,D5,1*%
%TO.N,Net-(D5-Pad1)*%
X114046000Y-109728000D03*
%TD*%
%TO.P,D6,1*%
%TO.N,Net-(D6-Pad1)*%
X114046000Y-124968000D03*
D12*
%TO.P,D6,2*%
%TO.N,Net-(D6-Pad2)*%
X114046000Y-122428000D03*
%TD*%
D11*
%TO.P,D7,1*%
%TO.N,Net-(D7-Pad1)*%
X114046000Y-140208000D03*
D12*
%TO.P,D7,2*%
%TO.N,Net-(D7-Pad2)*%
X114046000Y-137668000D03*
%TD*%
D11*
%TO.P,D8,1*%
%TO.N,/HET*%
X134366000Y-48768000D03*
D12*
%TO.P,D8,2*%
%TO.N,Net-(D8-Pad2)*%
X134366000Y-46228000D03*
%TD*%
D11*
%TO.P,D9,1*%
%TO.N,/LFP*%
X134366000Y-64008000D03*
D12*
%TO.P,D9,2*%
%TO.N,Net-(D9-Pad2)*%
X134366000Y-61468000D03*
%TD*%
%TO.P,D10,2*%
%TO.N,Net-(D10-Pad2)*%
X134366000Y-76708000D03*
D11*
%TO.P,D10,1*%
%TO.N,/HFP*%
X134366000Y-79248000D03*
%TD*%
D12*
%TO.P,D11,2*%
%TO.N,Net-(D11-Pad2)*%
X134366000Y-91948000D03*
D11*
%TO.P,D11,1*%
%TO.N,/HEGT*%
X134366000Y-94488000D03*
%TD*%
%TO.P,D12,1*%
%TO.N,/HFT*%
X134366000Y-109728000D03*
D12*
%TO.P,D12,2*%
%TO.N,Net-(D12-Pad2)*%
X134366000Y-107188000D03*
%TD*%
%TO.P,D13,2*%
%TO.N,Net-(D13-Pad2)*%
X134366000Y-122428000D03*
D11*
%TO.P,D13,1*%
%TO.N,/HOT*%
X134366000Y-124968000D03*
%TD*%
%TO.P,D14,1*%
%TO.N,/LOP*%
X134366000Y-140208000D03*
D12*
%TO.P,D14,2*%
%TO.N,Net-(D14-Pad2)*%
X134366000Y-137668000D03*
%TD*%
D13*
%TO.P,J1,2*%
%TO.N,/HET*%
X89281000Y-74803000D03*
D14*
%TO.P,J1,1*%
%TO.N,Net-(D1-Pad1)*%
X89281000Y-70993000D03*
%TD*%
%TO.P,J2,1*%
%TO.N,Net-(D2-Pad1)*%
X89281000Y-79248000D03*
D13*
%TO.P,J2,5*%
%TO.N,Net-(D4-Pad1)*%
X89281000Y-94488000D03*
%TO.P,J2,4*%
%TO.N,/HFP*%
X89281000Y-90678000D03*
%TO.P,J2,2*%
%TO.N,/LFP*%
X89281000Y-83058000D03*
%TO.P,J2,3*%
%TO.N,Net-(D3-Pad1)*%
X89281000Y-86868000D03*
%TD*%
D14*
%TO.P,J3,1*%
%TO.N,/HEGT*%
X89281000Y-98933000D03*
D13*
%TO.P,J3,2*%
%TO.N,Net-(D5-Pad1)*%
X89281000Y-102743000D03*
%TD*%
%TO.P,J4,3*%
%TO.N,/HOT*%
X89281000Y-114808000D03*
%TO.P,J4,2*%
%TO.N,Net-(D6-Pad1)*%
X89281000Y-110998000D03*
%TO.P,J4,4*%
%TO.N,Net-(D7-Pad1)*%
X89281000Y-118618000D03*
%TO.P,J4,5*%
%TO.N,/LOP*%
X89281000Y-122428000D03*
D14*
%TO.P,J4,1*%
%TO.N,/HFT*%
X89281000Y-107188000D03*
%TD*%
D13*
%TO.P,J5,2*%
%TO.N,GND*%
X89281000Y-67183000D03*
D14*
%TO.P,J5,1*%
%TO.N,+12V*%
X89281000Y-63373000D03*
%TD*%
D15*
%TO.P,R1,2*%
%TO.N,Net-(D1-Pad2)*%
X107696000Y-46228000D03*
D16*
%TO.P,R1,1*%
%TO.N,+12V*%
X107696000Y-56388000D03*
%TD*%
%TO.P,R2,1*%
%TO.N,+12V*%
X107696000Y-71628000D03*
D15*
%TO.P,R2,2*%
%TO.N,Net-(D2-Pad2)*%
X107696000Y-61468000D03*
%TD*%
%TO.P,R3,2*%
%TO.N,Net-(D3-Pad2)*%
X107696000Y-76708000D03*
D16*
%TO.P,R3,1*%
%TO.N,+12V*%
X107696000Y-86868000D03*
%TD*%
%TO.P,R4,1*%
%TO.N,+12V*%
X107696000Y-102108000D03*
D15*
%TO.P,R4,2*%
%TO.N,Net-(D4-Pad2)*%
X107696000Y-91948000D03*
%TD*%
%TO.P,R5,2*%
%TO.N,Net-(D5-Pad2)*%
X107696000Y-107188000D03*
D16*
%TO.P,R5,1*%
%TO.N,+12V*%
X107696000Y-117348000D03*
%TD*%
%TO.P,R6,1*%
%TO.N,+12V*%
X107696000Y-132588000D03*
D15*
%TO.P,R6,2*%
%TO.N,Net-(D6-Pad2)*%
X107696000Y-122428000D03*
%TD*%
%TO.P,R7,2*%
%TO.N,Net-(D7-Pad2)*%
X107696000Y-137668000D03*
D16*
%TO.P,R7,1*%
%TO.N,+12V*%
X107696000Y-147828000D03*
%TD*%
%TO.P,R8,1*%
%TO.N,Net-(D8-Pad2)*%
X140716000Y-46228000D03*
D15*
%TO.P,R8,2*%
%TO.N,+12V*%
X140716000Y-56388000D03*
%TD*%
%TO.P,R9,2*%
%TO.N,+12V*%
X140716000Y-71628000D03*
D16*
%TO.P,R9,1*%
%TO.N,Net-(D9-Pad2)*%
X140716000Y-61468000D03*
%TD*%
%TO.P,R10,1*%
%TO.N,Net-(D10-Pad2)*%
X140716000Y-76708000D03*
D15*
%TO.P,R10,2*%
%TO.N,+12V*%
X140716000Y-86868000D03*
%TD*%
%TO.P,R11,2*%
%TO.N,+12V*%
X140716000Y-102108000D03*
D16*
%TO.P,R11,1*%
%TO.N,Net-(D11-Pad2)*%
X140716000Y-91948000D03*
%TD*%
%TO.P,R12,1*%
%TO.N,Net-(D12-Pad2)*%
X140716000Y-107188000D03*
D15*
%TO.P,R12,2*%
%TO.N,+12V*%
X140716000Y-117348000D03*
%TD*%
D16*
%TO.P,R13,1*%
%TO.N,Net-(D13-Pad2)*%
X140716000Y-122428000D03*
D15*
%TO.P,R13,2*%
%TO.N,+12V*%
X140716000Y-132588000D03*
%TD*%
%TO.P,R14,2*%
%TO.N,+12V*%
X140716000Y-147828000D03*
D16*
%TO.P,R14,1*%
%TO.N,Net-(D14-Pad2)*%
X140716000Y-137668000D03*
%TD*%
D17*
%TO.N,GND*%
X110744000Y-141478000D03*
X110744000Y-138938000D03*
X94234000Y-120650000D03*
X91948000Y-116586000D03*
X92202000Y-113030000D03*
X92202000Y-109220000D03*
X110490000Y-110998000D03*
X110490000Y-93218000D03*
X91948000Y-88900000D03*
X91948000Y-81280000D03*
X92202000Y-72898000D03*
X110490000Y-62738000D03*
X98298000Y-64262000D03*
X110744000Y-80518000D03*
X110744000Y-77978000D03*
X110744000Y-123698000D03*
X110490000Y-126238000D03*
X110490000Y-65278000D03*
X110490000Y-50038000D03*
X110744000Y-47498000D03*
%TO.N,+12V*%
X97536000Y-56388000D03*
%TD*%
D18*
%TO.N,+12V*%
X97536000Y-56388000D02*
X107696000Y-56388000D01*
%TD*%
D19*
%TO.N,GND*%
G36*
X155804001Y-149200000D02*
G01*
X141153533Y-149200000D01*
X141395727Y-149099680D01*
X141630759Y-148942637D01*
X141830637Y-148742759D01*
X141987680Y-148507727D01*
X142095853Y-148246574D01*
X142151000Y-147969335D01*
X142151000Y-147686665D01*
X142095853Y-147409426D01*
X141987680Y-147148273D01*
X141830637Y-146913241D01*
X141630759Y-146713363D01*
X141395727Y-146556320D01*
X141134574Y-146448147D01*
X140857335Y-146393000D01*
X140574665Y-146393000D01*
X140297426Y-146448147D01*
X140036273Y-146556320D01*
X139801241Y-146713363D01*
X139601363Y-146913241D01*
X139444320Y-147148273D01*
X139336147Y-147409426D01*
X139281000Y-147686665D01*
X139281000Y-147969335D01*
X139336147Y-148246574D01*
X139444320Y-148507727D01*
X139601363Y-148742759D01*
X139801241Y-148942637D01*
X140036273Y-149099680D01*
X140278467Y-149200000D01*
X108133533Y-149200000D01*
X108375727Y-149099680D01*
X108610759Y-148942637D01*
X108810637Y-148742759D01*
X108967680Y-148507727D01*
X109075853Y-148246574D01*
X109131000Y-147969335D01*
X109131000Y-147686665D01*
X109075853Y-147409426D01*
X108967680Y-147148273D01*
X108810637Y-146913241D01*
X108610759Y-146713363D01*
X108375727Y-146556320D01*
X108114574Y-146448147D01*
X107837335Y-146393000D01*
X107554665Y-146393000D01*
X107277426Y-146448147D01*
X107016273Y-146556320D01*
X106781241Y-146713363D01*
X106581363Y-146913241D01*
X106424320Y-147148273D01*
X106316147Y-147409426D01*
X106261000Y-147686665D01*
X106261000Y-147969335D01*
X106316147Y-148246574D01*
X106424320Y-148507727D01*
X106581363Y-148742759D01*
X106781241Y-148942637D01*
X107016273Y-149099680D01*
X107258467Y-149200000D01*
X85496000Y-149200000D01*
X85496000Y-143694456D01*
X87393000Y-143694456D01*
X87393000Y-144341544D01*
X87519240Y-144976199D01*
X87766871Y-145574031D01*
X88126374Y-146112066D01*
X88583934Y-146569626D01*
X89121969Y-146929129D01*
X89719801Y-147176760D01*
X90354456Y-147303000D01*
X91001544Y-147303000D01*
X91636199Y-147176760D01*
X92234031Y-146929129D01*
X92772066Y-146569626D01*
X93229626Y-146112066D01*
X93589129Y-145574031D01*
X93836760Y-144976199D01*
X93963000Y-144341544D01*
X93963000Y-143694456D01*
X147337000Y-143694456D01*
X147337000Y-144341544D01*
X147463240Y-144976199D01*
X147710871Y-145574031D01*
X148070374Y-146112066D01*
X148527934Y-146569626D01*
X149065969Y-146929129D01*
X149663801Y-147176760D01*
X150298456Y-147303000D01*
X150945544Y-147303000D01*
X151580199Y-147176760D01*
X152178031Y-146929129D01*
X152716066Y-146569626D01*
X153173626Y-146112066D01*
X153533129Y-145574031D01*
X153780760Y-144976199D01*
X153907000Y-144341544D01*
X153907000Y-143694456D01*
X153780760Y-143059801D01*
X153533129Y-142461969D01*
X153173626Y-141923934D01*
X152716066Y-141466374D01*
X152178031Y-141106871D01*
X151580199Y-140859240D01*
X150945544Y-140733000D01*
X150298456Y-140733000D01*
X149663801Y-140859240D01*
X149065969Y-141106871D01*
X148527934Y-141466374D01*
X148070374Y-141923934D01*
X147710871Y-142461969D01*
X147463240Y-143059801D01*
X147337000Y-143694456D01*
X93963000Y-143694456D01*
X93836760Y-143059801D01*
X93589129Y-142461969D01*
X93229626Y-141923934D01*
X92772066Y-141466374D01*
X92234031Y-141106871D01*
X91636199Y-140859240D01*
X91001544Y-140733000D01*
X90354456Y-140733000D01*
X89719801Y-140859240D01*
X89121969Y-141106871D01*
X88583934Y-141466374D01*
X88126374Y-141923934D01*
X87766871Y-142461969D01*
X87519240Y-143059801D01*
X87393000Y-143694456D01*
X85496000Y-143694456D01*
X85496000Y-139308000D01*
X112507928Y-139308000D01*
X112507928Y-141108000D01*
X112520188Y-141232482D01*
X112556498Y-141352180D01*
X112615463Y-141462494D01*
X112694815Y-141559185D01*
X112791506Y-141638537D01*
X112901820Y-141697502D01*
X113021518Y-141733812D01*
X113146000Y-141746072D01*
X114946000Y-141746072D01*
X115070482Y-141733812D01*
X115190180Y-141697502D01*
X115300494Y-141638537D01*
X115397185Y-141559185D01*
X115476537Y-141462494D01*
X115535502Y-141352180D01*
X115571812Y-141232482D01*
X115584072Y-141108000D01*
X115584072Y-139308000D01*
X132827928Y-139308000D01*
X132827928Y-141108000D01*
X132840188Y-141232482D01*
X132876498Y-141352180D01*
X132935463Y-141462494D01*
X133014815Y-141559185D01*
X133111506Y-141638537D01*
X133221820Y-141697502D01*
X133341518Y-141733812D01*
X133466000Y-141746072D01*
X135266000Y-141746072D01*
X135390482Y-141733812D01*
X135510180Y-141697502D01*
X135620494Y-141638537D01*
X135717185Y-141559185D01*
X135796537Y-141462494D01*
X135855502Y-141352180D01*
X135891812Y-141232482D01*
X135904072Y-141108000D01*
X135904072Y-139308000D01*
X135891812Y-139183518D01*
X135855502Y-139063820D01*
X135796537Y-138953506D01*
X135717185Y-138856815D01*
X135620494Y-138777463D01*
X135510180Y-138718498D01*
X135491873Y-138712944D01*
X135558312Y-138646505D01*
X135726299Y-138395095D01*
X135842011Y-138115743D01*
X135901000Y-137819184D01*
X135901000Y-137526665D01*
X139281000Y-137526665D01*
X139281000Y-137809335D01*
X139336147Y-138086574D01*
X139444320Y-138347727D01*
X139601363Y-138582759D01*
X139801241Y-138782637D01*
X140036273Y-138939680D01*
X140297426Y-139047853D01*
X140574665Y-139103000D01*
X140857335Y-139103000D01*
X141134574Y-139047853D01*
X141395727Y-138939680D01*
X141630759Y-138782637D01*
X141830637Y-138582759D01*
X141987680Y-138347727D01*
X142095853Y-138086574D01*
X142151000Y-137809335D01*
X142151000Y-137526665D01*
X142095853Y-137249426D01*
X141987680Y-136988273D01*
X141830637Y-136753241D01*
X141630759Y-136553363D01*
X141395727Y-136396320D01*
X141134574Y-136288147D01*
X140857335Y-136233000D01*
X140574665Y-136233000D01*
X140297426Y-136288147D01*
X140036273Y-136396320D01*
X139801241Y-136553363D01*
X139601363Y-136753241D01*
X139444320Y-136988273D01*
X139336147Y-137249426D01*
X139281000Y-137526665D01*
X135901000Y-137526665D01*
X135901000Y-137516816D01*
X135842011Y-137220257D01*
X135726299Y-136940905D01*
X135558312Y-136689495D01*
X135344505Y-136475688D01*
X135093095Y-136307701D01*
X134813743Y-136191989D01*
X134517184Y-136133000D01*
X134214816Y-136133000D01*
X133918257Y-136191989D01*
X133638905Y-136307701D01*
X133387495Y-136475688D01*
X133173688Y-136689495D01*
X133005701Y-136940905D01*
X132889989Y-137220257D01*
X132831000Y-137516816D01*
X132831000Y-137819184D01*
X132889989Y-138115743D01*
X133005701Y-138395095D01*
X133173688Y-138646505D01*
X133240127Y-138712944D01*
X133221820Y-138718498D01*
X133111506Y-138777463D01*
X133014815Y-138856815D01*
X132935463Y-138953506D01*
X132876498Y-139063820D01*
X132840188Y-139183518D01*
X132827928Y-139308000D01*
X115584072Y-139308000D01*
X115571812Y-139183518D01*
X115535502Y-139063820D01*
X115476537Y-138953506D01*
X115397185Y-138856815D01*
X115300494Y-138777463D01*
X115190180Y-138718498D01*
X115171873Y-138712944D01*
X115238312Y-138646505D01*
X115406299Y-138395095D01*
X115522011Y-138115743D01*
X115581000Y-137819184D01*
X115581000Y-137516816D01*
X115522011Y-137220257D01*
X115406299Y-136940905D01*
X115238312Y-136689495D01*
X115024505Y-136475688D01*
X114773095Y-136307701D01*
X114493743Y-136191989D01*
X114197184Y-136133000D01*
X113894816Y-136133000D01*
X113598257Y-136191989D01*
X113318905Y-136307701D01*
X113067495Y-136475688D01*
X112853688Y-136689495D01*
X112685701Y-136940905D01*
X112569989Y-137220257D01*
X112511000Y-137516816D01*
X112511000Y-137819184D01*
X112569989Y-138115743D01*
X112685701Y-138395095D01*
X112853688Y-138646505D01*
X112920127Y-138712944D01*
X112901820Y-138718498D01*
X112791506Y-138777463D01*
X112694815Y-138856815D01*
X112615463Y-138953506D01*
X112556498Y-139063820D01*
X112520188Y-139183518D01*
X112507928Y-139308000D01*
X85496000Y-139308000D01*
X85496000Y-137526665D01*
X106261000Y-137526665D01*
X106261000Y-137809335D01*
X106316147Y-138086574D01*
X106424320Y-138347727D01*
X106581363Y-138582759D01*
X106781241Y-138782637D01*
X107016273Y-138939680D01*
X107277426Y-139047853D01*
X107554665Y-139103000D01*
X107837335Y-139103000D01*
X108114574Y-139047853D01*
X108375727Y-138939680D01*
X108610759Y-138782637D01*
X108810637Y-138582759D01*
X108967680Y-138347727D01*
X109075853Y-138086574D01*
X109131000Y-137809335D01*
X109131000Y-137526665D01*
X109075853Y-137249426D01*
X108967680Y-136988273D01*
X108810637Y-136753241D01*
X108610759Y-136553363D01*
X108375727Y-136396320D01*
X108114574Y-136288147D01*
X107837335Y-136233000D01*
X107554665Y-136233000D01*
X107277426Y-136288147D01*
X107016273Y-136396320D01*
X106781241Y-136553363D01*
X106581363Y-136753241D01*
X106424320Y-136988273D01*
X106316147Y-137249426D01*
X106261000Y-137526665D01*
X85496000Y-137526665D01*
X85496000Y-132446665D01*
X106261000Y-132446665D01*
X106261000Y-132729335D01*
X106316147Y-133006574D01*
X106424320Y-133267727D01*
X106581363Y-133502759D01*
X106781241Y-133702637D01*
X107016273Y-133859680D01*
X107277426Y-133967853D01*
X107554665Y-134023000D01*
X107837335Y-134023000D01*
X108114574Y-133967853D01*
X108375727Y-133859680D01*
X108610759Y-133702637D01*
X108810637Y-133502759D01*
X108967680Y-133267727D01*
X109075853Y-133006574D01*
X109131000Y-132729335D01*
X109131000Y-132446665D01*
X139281000Y-132446665D01*
X139281000Y-132729335D01*
X139336147Y-133006574D01*
X139444320Y-133267727D01*
X139601363Y-133502759D01*
X139801241Y-133702637D01*
X140036273Y-133859680D01*
X140297426Y-133967853D01*
X140574665Y-134023000D01*
X140857335Y-134023000D01*
X141134574Y-133967853D01*
X141395727Y-133859680D01*
X141630759Y-133702637D01*
X141830637Y-133502759D01*
X141987680Y-133267727D01*
X142095853Y-133006574D01*
X142151000Y-132729335D01*
X142151000Y-132446665D01*
X142095853Y-132169426D01*
X141987680Y-131908273D01*
X141830637Y-131673241D01*
X141630759Y-131473363D01*
X141395727Y-131316320D01*
X141134574Y-131208147D01*
X140857335Y-131153000D01*
X140574665Y-131153000D01*
X140297426Y-131208147D01*
X140036273Y-131316320D01*
X139801241Y-131473363D01*
X139601363Y-131673241D01*
X139444320Y-131908273D01*
X139336147Y-132169426D01*
X139281000Y-132446665D01*
X109131000Y-132446665D01*
X109075853Y-132169426D01*
X108967680Y-131908273D01*
X108810637Y-131673241D01*
X108610759Y-131473363D01*
X108375727Y-131316320D01*
X108114574Y-131208147D01*
X107837335Y-131153000D01*
X107554665Y-131153000D01*
X107277426Y-131208147D01*
X107016273Y-131316320D01*
X106781241Y-131473363D01*
X106581363Y-131673241D01*
X106424320Y-131908273D01*
X106316147Y-132169426D01*
X106261000Y-132446665D01*
X85496000Y-132446665D01*
X85496000Y-105888000D01*
X87342928Y-105888000D01*
X87342928Y-108488000D01*
X87355188Y-108612482D01*
X87391498Y-108732180D01*
X87450463Y-108842494D01*
X87529815Y-108939185D01*
X87626506Y-109018537D01*
X87736820Y-109077502D01*
X87856518Y-109113812D01*
X87981000Y-109126072D01*
X88773335Y-109126072D01*
X88716581Y-109137361D01*
X88364434Y-109283225D01*
X88047509Y-109494987D01*
X87777987Y-109764509D01*
X87566225Y-110081434D01*
X87420361Y-110433581D01*
X87346000Y-110807419D01*
X87346000Y-111188581D01*
X87420361Y-111562419D01*
X87566225Y-111914566D01*
X87777987Y-112231491D01*
X88047509Y-112501013D01*
X88364434Y-112712775D01*
X88716581Y-112858639D01*
X88939599Y-112903000D01*
X88716581Y-112947361D01*
X88364434Y-113093225D01*
X88047509Y-113304987D01*
X87777987Y-113574509D01*
X87566225Y-113891434D01*
X87420361Y-114243581D01*
X87346000Y-114617419D01*
X87346000Y-114998581D01*
X87420361Y-115372419D01*
X87566225Y-115724566D01*
X87777987Y-116041491D01*
X88047509Y-116311013D01*
X88364434Y-116522775D01*
X88716581Y-116668639D01*
X88939599Y-116713000D01*
X88716581Y-116757361D01*
X88364434Y-116903225D01*
X88047509Y-117114987D01*
X87777987Y-117384509D01*
X87566225Y-117701434D01*
X87420361Y-118053581D01*
X87346000Y-118427419D01*
X87346000Y-118808581D01*
X87420361Y-119182419D01*
X87566225Y-119534566D01*
X87777987Y-119851491D01*
X88047509Y-120121013D01*
X88364434Y-120332775D01*
X88716581Y-120478639D01*
X88939599Y-120523000D01*
X88716581Y-120567361D01*
X88364434Y-120713225D01*
X88047509Y-120924987D01*
X87777987Y-121194509D01*
X87566225Y-121511434D01*
X87420361Y-121863581D01*
X87346000Y-122237419D01*
X87346000Y-122618581D01*
X87420361Y-122992419D01*
X87566225Y-123344566D01*
X87777987Y-123661491D01*
X88047509Y-123931013D01*
X88364434Y-124142775D01*
X88716581Y-124288639D01*
X89090419Y-124363000D01*
X89471581Y-124363000D01*
X89845419Y-124288639D01*
X90197566Y-124142775D01*
X90309474Y-124068000D01*
X112507928Y-124068000D01*
X112507928Y-125868000D01*
X112520188Y-125992482D01*
X112556498Y-126112180D01*
X112615463Y-126222494D01*
X112694815Y-126319185D01*
X112791506Y-126398537D01*
X112901820Y-126457502D01*
X113021518Y-126493812D01*
X113146000Y-126506072D01*
X114946000Y-126506072D01*
X115070482Y-126493812D01*
X115190180Y-126457502D01*
X115300494Y-126398537D01*
X115397185Y-126319185D01*
X115476537Y-126222494D01*
X115535502Y-126112180D01*
X115571812Y-125992482D01*
X115584072Y-125868000D01*
X115584072Y-124068000D01*
X132827928Y-124068000D01*
X132827928Y-125868000D01*
X132840188Y-125992482D01*
X132876498Y-126112180D01*
X132935463Y-126222494D01*
X133014815Y-126319185D01*
X133111506Y-126398537D01*
X133221820Y-126457502D01*
X133341518Y-126493812D01*
X133466000Y-126506072D01*
X135266000Y-126506072D01*
X135390482Y-126493812D01*
X135510180Y-126457502D01*
X135620494Y-126398537D01*
X135717185Y-126319185D01*
X135796537Y-126222494D01*
X135855502Y-126112180D01*
X135891812Y-125992482D01*
X135904072Y-125868000D01*
X135904072Y-124068000D01*
X135891812Y-123943518D01*
X135855502Y-123823820D01*
X135796537Y-123713506D01*
X135717185Y-123616815D01*
X135620494Y-123537463D01*
X135510180Y-123478498D01*
X135491873Y-123472944D01*
X135558312Y-123406505D01*
X135726299Y-123155095D01*
X135842011Y-122875743D01*
X135901000Y-122579184D01*
X135901000Y-122286665D01*
X139281000Y-122286665D01*
X139281000Y-122569335D01*
X139336147Y-122846574D01*
X139444320Y-123107727D01*
X139601363Y-123342759D01*
X139801241Y-123542637D01*
X140036273Y-123699680D01*
X140297426Y-123807853D01*
X140574665Y-123863000D01*
X140857335Y-123863000D01*
X141134574Y-123807853D01*
X141395727Y-123699680D01*
X141630759Y-123542637D01*
X141830637Y-123342759D01*
X141987680Y-123107727D01*
X142095853Y-122846574D01*
X142151000Y-122569335D01*
X142151000Y-122286665D01*
X142095853Y-122009426D01*
X141987680Y-121748273D01*
X141830637Y-121513241D01*
X141630759Y-121313363D01*
X141395727Y-121156320D01*
X141134574Y-121048147D01*
X140857335Y-120993000D01*
X140574665Y-120993000D01*
X140297426Y-121048147D01*
X140036273Y-121156320D01*
X139801241Y-121313363D01*
X139601363Y-121513241D01*
X139444320Y-121748273D01*
X139336147Y-122009426D01*
X139281000Y-122286665D01*
X135901000Y-122286665D01*
X135901000Y-122276816D01*
X135842011Y-121980257D01*
X135726299Y-121700905D01*
X135558312Y-121449495D01*
X135344505Y-121235688D01*
X135093095Y-121067701D01*
X134813743Y-120951989D01*
X134517184Y-120893000D01*
X134214816Y-120893000D01*
X133918257Y-120951989D01*
X133638905Y-121067701D01*
X133387495Y-121235688D01*
X133173688Y-121449495D01*
X133005701Y-121700905D01*
X132889989Y-121980257D01*
X132831000Y-122276816D01*
X132831000Y-122579184D01*
X132889989Y-122875743D01*
X133005701Y-123155095D01*
X133173688Y-123406505D01*
X133240127Y-123472944D01*
X133221820Y-123478498D01*
X133111506Y-123537463D01*
X133014815Y-123616815D01*
X132935463Y-123713506D01*
X132876498Y-123823820D01*
X132840188Y-123943518D01*
X132827928Y-124068000D01*
X115584072Y-124068000D01*
X115571812Y-123943518D01*
X115535502Y-123823820D01*
X115476537Y-123713506D01*
X115397185Y-123616815D01*
X115300494Y-123537463D01*
X115190180Y-123478498D01*
X115171873Y-123472944D01*
X115238312Y-123406505D01*
X115406299Y-123155095D01*
X115522011Y-122875743D01*
X115581000Y-122579184D01*
X115581000Y-122276816D01*
X115522011Y-121980257D01*
X115406299Y-121700905D01*
X115238312Y-121449495D01*
X115024505Y-121235688D01*
X114773095Y-121067701D01*
X114493743Y-120951989D01*
X114197184Y-120893000D01*
X113894816Y-120893000D01*
X113598257Y-120951989D01*
X113318905Y-121067701D01*
X113067495Y-121235688D01*
X112853688Y-121449495D01*
X112685701Y-121700905D01*
X112569989Y-121980257D01*
X112511000Y-122276816D01*
X112511000Y-122579184D01*
X112569989Y-122875743D01*
X112685701Y-123155095D01*
X112853688Y-123406505D01*
X112920127Y-123472944D01*
X112901820Y-123478498D01*
X112791506Y-123537463D01*
X112694815Y-123616815D01*
X112615463Y-123713506D01*
X112556498Y-123823820D01*
X112520188Y-123943518D01*
X112507928Y-124068000D01*
X90309474Y-124068000D01*
X90514491Y-123931013D01*
X90784013Y-123661491D01*
X90995775Y-123344566D01*
X91141639Y-122992419D01*
X91216000Y-122618581D01*
X91216000Y-122286665D01*
X106261000Y-122286665D01*
X106261000Y-122569335D01*
X106316147Y-122846574D01*
X106424320Y-123107727D01*
X106581363Y-123342759D01*
X106781241Y-123542637D01*
X107016273Y-123699680D01*
X107277426Y-123807853D01*
X107554665Y-123863000D01*
X107837335Y-123863000D01*
X108114574Y-123807853D01*
X108375727Y-123699680D01*
X108610759Y-123542637D01*
X108810637Y-123342759D01*
X108967680Y-123107727D01*
X109075853Y-122846574D01*
X109131000Y-122569335D01*
X109131000Y-122286665D01*
X109075853Y-122009426D01*
X108967680Y-121748273D01*
X108810637Y-121513241D01*
X108610759Y-121313363D01*
X108375727Y-121156320D01*
X108114574Y-121048147D01*
X107837335Y-120993000D01*
X107554665Y-120993000D01*
X107277426Y-121048147D01*
X107016273Y-121156320D01*
X106781241Y-121313363D01*
X106581363Y-121513241D01*
X106424320Y-121748273D01*
X106316147Y-122009426D01*
X106261000Y-122286665D01*
X91216000Y-122286665D01*
X91216000Y-122237419D01*
X91141639Y-121863581D01*
X90995775Y-121511434D01*
X90784013Y-121194509D01*
X90514491Y-120924987D01*
X90197566Y-120713225D01*
X89845419Y-120567361D01*
X89622401Y-120523000D01*
X89845419Y-120478639D01*
X90197566Y-120332775D01*
X90514491Y-120121013D01*
X90784013Y-119851491D01*
X90995775Y-119534566D01*
X91141639Y-119182419D01*
X91216000Y-118808581D01*
X91216000Y-118427419D01*
X91141639Y-118053581D01*
X90995775Y-117701434D01*
X90784013Y-117384509D01*
X90606169Y-117206665D01*
X106261000Y-117206665D01*
X106261000Y-117489335D01*
X106316147Y-117766574D01*
X106424320Y-118027727D01*
X106581363Y-118262759D01*
X106781241Y-118462637D01*
X107016273Y-118619680D01*
X107277426Y-118727853D01*
X107554665Y-118783000D01*
X107837335Y-118783000D01*
X108114574Y-118727853D01*
X108375727Y-118619680D01*
X108610759Y-118462637D01*
X108810637Y-118262759D01*
X108967680Y-118027727D01*
X109075853Y-117766574D01*
X109131000Y-117489335D01*
X109131000Y-117206665D01*
X139281000Y-117206665D01*
X139281000Y-117489335D01*
X139336147Y-117766574D01*
X139444320Y-118027727D01*
X139601363Y-118262759D01*
X139801241Y-118462637D01*
X140036273Y-118619680D01*
X140297426Y-118727853D01*
X140574665Y-118783000D01*
X140857335Y-118783000D01*
X141134574Y-118727853D01*
X141395727Y-118619680D01*
X141630759Y-118462637D01*
X141830637Y-118262759D01*
X141987680Y-118027727D01*
X142095853Y-117766574D01*
X142151000Y-117489335D01*
X142151000Y-117206665D01*
X142095853Y-116929426D01*
X141987680Y-116668273D01*
X141830637Y-116433241D01*
X141630759Y-116233363D01*
X141395727Y-116076320D01*
X141134574Y-115968147D01*
X140857335Y-115913000D01*
X140574665Y-115913000D01*
X140297426Y-115968147D01*
X140036273Y-116076320D01*
X139801241Y-116233363D01*
X139601363Y-116433241D01*
X139444320Y-116668273D01*
X139336147Y-116929426D01*
X139281000Y-117206665D01*
X109131000Y-117206665D01*
X109075853Y-116929426D01*
X108967680Y-116668273D01*
X108810637Y-116433241D01*
X108610759Y-116233363D01*
X108375727Y-116076320D01*
X108114574Y-115968147D01*
X107837335Y-115913000D01*
X107554665Y-115913000D01*
X107277426Y-115968147D01*
X107016273Y-116076320D01*
X106781241Y-116233363D01*
X106581363Y-116433241D01*
X106424320Y-116668273D01*
X106316147Y-116929426D01*
X106261000Y-117206665D01*
X90606169Y-117206665D01*
X90514491Y-117114987D01*
X90197566Y-116903225D01*
X89845419Y-116757361D01*
X89622401Y-116713000D01*
X89845419Y-116668639D01*
X90197566Y-116522775D01*
X90514491Y-116311013D01*
X90784013Y-116041491D01*
X90995775Y-115724566D01*
X91141639Y-115372419D01*
X91216000Y-114998581D01*
X91216000Y-114617419D01*
X91141639Y-114243581D01*
X90995775Y-113891434D01*
X90784013Y-113574509D01*
X90514491Y-113304987D01*
X90197566Y-113093225D01*
X89845419Y-112947361D01*
X89622401Y-112903000D01*
X89845419Y-112858639D01*
X90197566Y-112712775D01*
X90514491Y-112501013D01*
X90784013Y-112231491D01*
X90995775Y-111914566D01*
X91141639Y-111562419D01*
X91216000Y-111188581D01*
X91216000Y-110807419D01*
X91141639Y-110433581D01*
X90995775Y-110081434D01*
X90784013Y-109764509D01*
X90514491Y-109494987D01*
X90197566Y-109283225D01*
X89845419Y-109137361D01*
X89788665Y-109126072D01*
X90581000Y-109126072D01*
X90705482Y-109113812D01*
X90825180Y-109077502D01*
X90935494Y-109018537D01*
X91032185Y-108939185D01*
X91111537Y-108842494D01*
X91119284Y-108828000D01*
X112507928Y-108828000D01*
X112507928Y-110628000D01*
X112520188Y-110752482D01*
X112556498Y-110872180D01*
X112615463Y-110982494D01*
X112694815Y-111079185D01*
X112791506Y-111158537D01*
X112901820Y-111217502D01*
X113021518Y-111253812D01*
X113146000Y-111266072D01*
X114946000Y-111266072D01*
X115070482Y-111253812D01*
X115190180Y-111217502D01*
X115300494Y-111158537D01*
X115397185Y-111079185D01*
X115476537Y-110982494D01*
X115535502Y-110872180D01*
X115571812Y-110752482D01*
X115584072Y-110628000D01*
X115584072Y-108828000D01*
X132827928Y-108828000D01*
X132827928Y-110628000D01*
X132840188Y-110752482D01*
X132876498Y-110872180D01*
X132935463Y-110982494D01*
X133014815Y-111079185D01*
X133111506Y-111158537D01*
X133221820Y-111217502D01*
X133341518Y-111253812D01*
X133466000Y-111266072D01*
X135266000Y-111266072D01*
X135390482Y-111253812D01*
X135510180Y-111217502D01*
X135620494Y-111158537D01*
X135717185Y-111079185D01*
X135796537Y-110982494D01*
X135855502Y-110872180D01*
X135891812Y-110752482D01*
X135904072Y-110628000D01*
X135904072Y-108828000D01*
X135891812Y-108703518D01*
X135855502Y-108583820D01*
X135796537Y-108473506D01*
X135717185Y-108376815D01*
X135620494Y-108297463D01*
X135510180Y-108238498D01*
X135491873Y-108232944D01*
X135558312Y-108166505D01*
X135726299Y-107915095D01*
X135842011Y-107635743D01*
X135901000Y-107339184D01*
X135901000Y-107046665D01*
X139281000Y-107046665D01*
X139281000Y-107329335D01*
X139336147Y-107606574D01*
X139444320Y-107867727D01*
X139601363Y-108102759D01*
X139801241Y-108302637D01*
X140036273Y-108459680D01*
X140297426Y-108567853D01*
X140574665Y-108623000D01*
X140857335Y-108623000D01*
X141134574Y-108567853D01*
X141395727Y-108459680D01*
X141630759Y-108302637D01*
X141830637Y-108102759D01*
X141987680Y-107867727D01*
X142095853Y-107606574D01*
X142151000Y-107329335D01*
X142151000Y-107046665D01*
X142095853Y-106769426D01*
X141987680Y-106508273D01*
X141830637Y-106273241D01*
X141630759Y-106073363D01*
X141395727Y-105916320D01*
X141134574Y-105808147D01*
X140857335Y-105753000D01*
X140574665Y-105753000D01*
X140297426Y-105808147D01*
X140036273Y-105916320D01*
X139801241Y-106073363D01*
X139601363Y-106273241D01*
X139444320Y-106508273D01*
X139336147Y-106769426D01*
X139281000Y-107046665D01*
X135901000Y-107046665D01*
X135901000Y-107036816D01*
X135842011Y-106740257D01*
X135726299Y-106460905D01*
X135558312Y-106209495D01*
X135344505Y-105995688D01*
X135093095Y-105827701D01*
X134813743Y-105711989D01*
X134517184Y-105653000D01*
X134214816Y-105653000D01*
X133918257Y-105711989D01*
X133638905Y-105827701D01*
X133387495Y-105995688D01*
X133173688Y-106209495D01*
X133005701Y-106460905D01*
X132889989Y-106740257D01*
X132831000Y-107036816D01*
X132831000Y-107339184D01*
X132889989Y-107635743D01*
X133005701Y-107915095D01*
X133173688Y-108166505D01*
X133240127Y-108232944D01*
X133221820Y-108238498D01*
X133111506Y-108297463D01*
X133014815Y-108376815D01*
X132935463Y-108473506D01*
X132876498Y-108583820D01*
X132840188Y-108703518D01*
X132827928Y-108828000D01*
X115584072Y-108828000D01*
X115571812Y-108703518D01*
X115535502Y-108583820D01*
X115476537Y-108473506D01*
X115397185Y-108376815D01*
X115300494Y-108297463D01*
X115190180Y-108238498D01*
X115171873Y-108232944D01*
X115238312Y-108166505D01*
X115406299Y-107915095D01*
X115522011Y-107635743D01*
X115581000Y-107339184D01*
X115581000Y-107036816D01*
X115522011Y-106740257D01*
X115406299Y-106460905D01*
X115238312Y-106209495D01*
X115024505Y-105995688D01*
X114773095Y-105827701D01*
X114493743Y-105711989D01*
X114197184Y-105653000D01*
X113894816Y-105653000D01*
X113598257Y-105711989D01*
X113318905Y-105827701D01*
X113067495Y-105995688D01*
X112853688Y-106209495D01*
X112685701Y-106460905D01*
X112569989Y-106740257D01*
X112511000Y-107036816D01*
X112511000Y-107339184D01*
X112569989Y-107635743D01*
X112685701Y-107915095D01*
X112853688Y-108166505D01*
X112920127Y-108232944D01*
X112901820Y-108238498D01*
X112791506Y-108297463D01*
X112694815Y-108376815D01*
X112615463Y-108473506D01*
X112556498Y-108583820D01*
X112520188Y-108703518D01*
X112507928Y-108828000D01*
X91119284Y-108828000D01*
X91170502Y-108732180D01*
X91206812Y-108612482D01*
X91219072Y-108488000D01*
X91219072Y-107046665D01*
X106261000Y-107046665D01*
X106261000Y-107329335D01*
X106316147Y-107606574D01*
X106424320Y-107867727D01*
X106581363Y-108102759D01*
X106781241Y-108302637D01*
X107016273Y-108459680D01*
X107277426Y-108567853D01*
X107554665Y-108623000D01*
X107837335Y-108623000D01*
X108114574Y-108567853D01*
X108375727Y-108459680D01*
X108610759Y-108302637D01*
X108810637Y-108102759D01*
X108967680Y-107867727D01*
X109075853Y-107606574D01*
X109131000Y-107329335D01*
X109131000Y-107046665D01*
X109075853Y-106769426D01*
X108967680Y-106508273D01*
X108810637Y-106273241D01*
X108610759Y-106073363D01*
X108375727Y-105916320D01*
X108114574Y-105808147D01*
X107837335Y-105753000D01*
X107554665Y-105753000D01*
X107277426Y-105808147D01*
X107016273Y-105916320D01*
X106781241Y-106073363D01*
X106581363Y-106273241D01*
X106424320Y-106508273D01*
X106316147Y-106769426D01*
X106261000Y-107046665D01*
X91219072Y-107046665D01*
X91219072Y-105888000D01*
X91206812Y-105763518D01*
X91170502Y-105643820D01*
X91111537Y-105533506D01*
X91032185Y-105436815D01*
X90935494Y-105357463D01*
X90825180Y-105298498D01*
X90705482Y-105262188D01*
X90581000Y-105249928D01*
X87981000Y-105249928D01*
X87856518Y-105262188D01*
X87736820Y-105298498D01*
X87626506Y-105357463D01*
X87529815Y-105436815D01*
X87450463Y-105533506D01*
X87391498Y-105643820D01*
X87355188Y-105763518D01*
X87342928Y-105888000D01*
X85496000Y-105888000D01*
X85496000Y-97633000D01*
X87342928Y-97633000D01*
X87342928Y-100233000D01*
X87355188Y-100357482D01*
X87391498Y-100477180D01*
X87450463Y-100587494D01*
X87529815Y-100684185D01*
X87626506Y-100763537D01*
X87736820Y-100822502D01*
X87856518Y-100858812D01*
X87981000Y-100871072D01*
X88773335Y-100871072D01*
X88716581Y-100882361D01*
X88364434Y-101028225D01*
X88047509Y-101239987D01*
X87777987Y-101509509D01*
X87566225Y-101826434D01*
X87420361Y-102178581D01*
X87346000Y-102552419D01*
X87346000Y-102933581D01*
X87420361Y-103307419D01*
X87566225Y-103659566D01*
X87777987Y-103976491D01*
X88047509Y-104246013D01*
X88364434Y-104457775D01*
X88716581Y-104603639D01*
X89090419Y-104678000D01*
X89471581Y-104678000D01*
X89845419Y-104603639D01*
X90197566Y-104457775D01*
X90514491Y-104246013D01*
X90784013Y-103976491D01*
X90995775Y-103659566D01*
X91141639Y-103307419D01*
X91216000Y-102933581D01*
X91216000Y-102552419D01*
X91141639Y-102178581D01*
X91053861Y-101966665D01*
X106261000Y-101966665D01*
X106261000Y-102249335D01*
X106316147Y-102526574D01*
X106424320Y-102787727D01*
X106581363Y-103022759D01*
X106781241Y-103222637D01*
X107016273Y-103379680D01*
X107277426Y-103487853D01*
X107554665Y-103543000D01*
X107837335Y-103543000D01*
X108114574Y-103487853D01*
X108375727Y-103379680D01*
X108610759Y-103222637D01*
X108810637Y-103022759D01*
X108967680Y-102787727D01*
X109075853Y-102526574D01*
X109131000Y-102249335D01*
X109131000Y-101966665D01*
X139281000Y-101966665D01*
X139281000Y-102249335D01*
X139336147Y-102526574D01*
X139444320Y-102787727D01*
X139601363Y-103022759D01*
X139801241Y-103222637D01*
X140036273Y-103379680D01*
X140297426Y-103487853D01*
X140574665Y-103543000D01*
X140857335Y-103543000D01*
X141134574Y-103487853D01*
X141395727Y-103379680D01*
X141630759Y-103222637D01*
X141830637Y-103022759D01*
X141987680Y-102787727D01*
X142095853Y-102526574D01*
X142151000Y-102249335D01*
X142151000Y-101966665D01*
X142095853Y-101689426D01*
X141987680Y-101428273D01*
X141830637Y-101193241D01*
X141630759Y-100993363D01*
X141395727Y-100836320D01*
X141134574Y-100728147D01*
X140857335Y-100673000D01*
X140574665Y-100673000D01*
X140297426Y-100728147D01*
X140036273Y-100836320D01*
X139801241Y-100993363D01*
X139601363Y-101193241D01*
X139444320Y-101428273D01*
X139336147Y-101689426D01*
X139281000Y-101966665D01*
X109131000Y-101966665D01*
X109075853Y-101689426D01*
X108967680Y-101428273D01*
X108810637Y-101193241D01*
X108610759Y-100993363D01*
X108375727Y-100836320D01*
X108114574Y-100728147D01*
X107837335Y-100673000D01*
X107554665Y-100673000D01*
X107277426Y-100728147D01*
X107016273Y-100836320D01*
X106781241Y-100993363D01*
X106581363Y-101193241D01*
X106424320Y-101428273D01*
X106316147Y-101689426D01*
X106261000Y-101966665D01*
X91053861Y-101966665D01*
X90995775Y-101826434D01*
X90784013Y-101509509D01*
X90514491Y-101239987D01*
X90197566Y-101028225D01*
X89845419Y-100882361D01*
X89788665Y-100871072D01*
X90581000Y-100871072D01*
X90705482Y-100858812D01*
X90825180Y-100822502D01*
X90935494Y-100763537D01*
X91032185Y-100684185D01*
X91111537Y-100587494D01*
X91170502Y-100477180D01*
X91206812Y-100357482D01*
X91219072Y-100233000D01*
X91219072Y-97633000D01*
X91206812Y-97508518D01*
X91170502Y-97388820D01*
X91111537Y-97278506D01*
X91032185Y-97181815D01*
X90935494Y-97102463D01*
X90825180Y-97043498D01*
X90705482Y-97007188D01*
X90581000Y-96994928D01*
X87981000Y-96994928D01*
X87856518Y-97007188D01*
X87736820Y-97043498D01*
X87626506Y-97102463D01*
X87529815Y-97181815D01*
X87450463Y-97278506D01*
X87391498Y-97388820D01*
X87355188Y-97508518D01*
X87342928Y-97633000D01*
X85496000Y-97633000D01*
X85496000Y-77948000D01*
X87342928Y-77948000D01*
X87342928Y-80548000D01*
X87355188Y-80672482D01*
X87391498Y-80792180D01*
X87450463Y-80902494D01*
X87529815Y-80999185D01*
X87626506Y-81078537D01*
X87736820Y-81137502D01*
X87856518Y-81173812D01*
X87981000Y-81186072D01*
X88773335Y-81186072D01*
X88716581Y-81197361D01*
X88364434Y-81343225D01*
X88047509Y-81554987D01*
X87777987Y-81824509D01*
X87566225Y-82141434D01*
X87420361Y-82493581D01*
X87346000Y-82867419D01*
X87346000Y-83248581D01*
X87420361Y-83622419D01*
X87566225Y-83974566D01*
X87777987Y-84291491D01*
X88047509Y-84561013D01*
X88364434Y-84772775D01*
X88716581Y-84918639D01*
X88939599Y-84963000D01*
X88716581Y-85007361D01*
X88364434Y-85153225D01*
X88047509Y-85364987D01*
X87777987Y-85634509D01*
X87566225Y-85951434D01*
X87420361Y-86303581D01*
X87346000Y-86677419D01*
X87346000Y-87058581D01*
X87420361Y-87432419D01*
X87566225Y-87784566D01*
X87777987Y-88101491D01*
X88047509Y-88371013D01*
X88364434Y-88582775D01*
X88716581Y-88728639D01*
X88939599Y-88773000D01*
X88716581Y-88817361D01*
X88364434Y-88963225D01*
X88047509Y-89174987D01*
X87777987Y-89444509D01*
X87566225Y-89761434D01*
X87420361Y-90113581D01*
X87346000Y-90487419D01*
X87346000Y-90868581D01*
X87420361Y-91242419D01*
X87566225Y-91594566D01*
X87777987Y-91911491D01*
X88047509Y-92181013D01*
X88364434Y-92392775D01*
X88716581Y-92538639D01*
X88939599Y-92583000D01*
X88716581Y-92627361D01*
X88364434Y-92773225D01*
X88047509Y-92984987D01*
X87777987Y-93254509D01*
X87566225Y-93571434D01*
X87420361Y-93923581D01*
X87346000Y-94297419D01*
X87346000Y-94678581D01*
X87420361Y-95052419D01*
X87566225Y-95404566D01*
X87777987Y-95721491D01*
X88047509Y-95991013D01*
X88364434Y-96202775D01*
X88716581Y-96348639D01*
X89090419Y-96423000D01*
X89471581Y-96423000D01*
X89845419Y-96348639D01*
X90197566Y-96202775D01*
X90514491Y-95991013D01*
X90784013Y-95721491D01*
X90995775Y-95404566D01*
X91141639Y-95052419D01*
X91216000Y-94678581D01*
X91216000Y-94297419D01*
X91141639Y-93923581D01*
X91002637Y-93588000D01*
X112507928Y-93588000D01*
X112507928Y-95388000D01*
X112520188Y-95512482D01*
X112556498Y-95632180D01*
X112615463Y-95742494D01*
X112694815Y-95839185D01*
X112791506Y-95918537D01*
X112901820Y-95977502D01*
X113021518Y-96013812D01*
X113146000Y-96026072D01*
X114946000Y-96026072D01*
X115070482Y-96013812D01*
X115190180Y-95977502D01*
X115300494Y-95918537D01*
X115397185Y-95839185D01*
X115476537Y-95742494D01*
X115535502Y-95632180D01*
X115571812Y-95512482D01*
X115584072Y-95388000D01*
X115584072Y-93588000D01*
X132827928Y-93588000D01*
X132827928Y-95388000D01*
X132840188Y-95512482D01*
X132876498Y-95632180D01*
X132935463Y-95742494D01*
X133014815Y-95839185D01*
X133111506Y-95918537D01*
X133221820Y-95977502D01*
X133341518Y-96013812D01*
X133466000Y-96026072D01*
X135266000Y-96026072D01*
X135390482Y-96013812D01*
X135510180Y-95977502D01*
X135620494Y-95918537D01*
X135717185Y-95839185D01*
X135796537Y-95742494D01*
X135855502Y-95632180D01*
X135891812Y-95512482D01*
X135904072Y-95388000D01*
X135904072Y-93588000D01*
X135891812Y-93463518D01*
X135855502Y-93343820D01*
X135796537Y-93233506D01*
X135717185Y-93136815D01*
X135620494Y-93057463D01*
X135510180Y-92998498D01*
X135491873Y-92992944D01*
X135558312Y-92926505D01*
X135726299Y-92675095D01*
X135842011Y-92395743D01*
X135901000Y-92099184D01*
X135901000Y-91806665D01*
X139281000Y-91806665D01*
X139281000Y-92089335D01*
X139336147Y-92366574D01*
X139444320Y-92627727D01*
X139601363Y-92862759D01*
X139801241Y-93062637D01*
X140036273Y-93219680D01*
X140297426Y-93327853D01*
X140574665Y-93383000D01*
X140857335Y-93383000D01*
X141134574Y-93327853D01*
X141395727Y-93219680D01*
X141630759Y-93062637D01*
X141830637Y-92862759D01*
X141987680Y-92627727D01*
X142095853Y-92366574D01*
X142151000Y-92089335D01*
X142151000Y-91806665D01*
X142095853Y-91529426D01*
X141987680Y-91268273D01*
X141830637Y-91033241D01*
X141630759Y-90833363D01*
X141395727Y-90676320D01*
X141134574Y-90568147D01*
X140857335Y-90513000D01*
X140574665Y-90513000D01*
X140297426Y-90568147D01*
X140036273Y-90676320D01*
X139801241Y-90833363D01*
X139601363Y-91033241D01*
X139444320Y-91268273D01*
X139336147Y-91529426D01*
X139281000Y-91806665D01*
X135901000Y-91806665D01*
X135901000Y-91796816D01*
X135842011Y-91500257D01*
X135726299Y-91220905D01*
X135558312Y-90969495D01*
X135344505Y-90755688D01*
X135093095Y-90587701D01*
X134813743Y-90471989D01*
X134517184Y-90413000D01*
X134214816Y-90413000D01*
X133918257Y-90471989D01*
X133638905Y-90587701D01*
X133387495Y-90755688D01*
X133173688Y-90969495D01*
X133005701Y-91220905D01*
X132889989Y-91500257D01*
X132831000Y-91796816D01*
X132831000Y-92099184D01*
X132889989Y-92395743D01*
X133005701Y-92675095D01*
X133173688Y-92926505D01*
X133240127Y-92992944D01*
X133221820Y-92998498D01*
X133111506Y-93057463D01*
X133014815Y-93136815D01*
X132935463Y-93233506D01*
X132876498Y-93343820D01*
X132840188Y-93463518D01*
X132827928Y-93588000D01*
X115584072Y-93588000D01*
X115571812Y-93463518D01*
X115535502Y-93343820D01*
X115476537Y-93233506D01*
X115397185Y-93136815D01*
X115300494Y-93057463D01*
X115190180Y-92998498D01*
X115171873Y-92992944D01*
X115238312Y-92926505D01*
X115406299Y-92675095D01*
X115522011Y-92395743D01*
X115581000Y-92099184D01*
X115581000Y-91796816D01*
X115522011Y-91500257D01*
X115406299Y-91220905D01*
X115238312Y-90969495D01*
X115024505Y-90755688D01*
X114773095Y-90587701D01*
X114493743Y-90471989D01*
X114197184Y-90413000D01*
X113894816Y-90413000D01*
X113598257Y-90471989D01*
X113318905Y-90587701D01*
X113067495Y-90755688D01*
X112853688Y-90969495D01*
X112685701Y-91220905D01*
X112569989Y-91500257D01*
X112511000Y-91796816D01*
X112511000Y-92099184D01*
X112569989Y-92395743D01*
X112685701Y-92675095D01*
X112853688Y-92926505D01*
X112920127Y-92992944D01*
X112901820Y-92998498D01*
X112791506Y-93057463D01*
X112694815Y-93136815D01*
X112615463Y-93233506D01*
X112556498Y-93343820D01*
X112520188Y-93463518D01*
X112507928Y-93588000D01*
X91002637Y-93588000D01*
X90995775Y-93571434D01*
X90784013Y-93254509D01*
X90514491Y-92984987D01*
X90197566Y-92773225D01*
X89845419Y-92627361D01*
X89622401Y-92583000D01*
X89845419Y-92538639D01*
X90197566Y-92392775D01*
X90514491Y-92181013D01*
X90784013Y-91911491D01*
X90854055Y-91806665D01*
X106261000Y-91806665D01*
X106261000Y-92089335D01*
X106316147Y-92366574D01*
X106424320Y-92627727D01*
X106581363Y-92862759D01*
X106781241Y-93062637D01*
X107016273Y-93219680D01*
X107277426Y-93327853D01*
X107554665Y-93383000D01*
X107837335Y-93383000D01*
X108114574Y-93327853D01*
X108375727Y-93219680D01*
X108610759Y-93062637D01*
X108810637Y-92862759D01*
X108967680Y-92627727D01*
X109075853Y-92366574D01*
X109131000Y-92089335D01*
X109131000Y-91806665D01*
X109075853Y-91529426D01*
X108967680Y-91268273D01*
X108810637Y-91033241D01*
X108610759Y-90833363D01*
X108375727Y-90676320D01*
X108114574Y-90568147D01*
X107837335Y-90513000D01*
X107554665Y-90513000D01*
X107277426Y-90568147D01*
X107016273Y-90676320D01*
X106781241Y-90833363D01*
X106581363Y-91033241D01*
X106424320Y-91268273D01*
X106316147Y-91529426D01*
X106261000Y-91806665D01*
X90854055Y-91806665D01*
X90995775Y-91594566D01*
X91141639Y-91242419D01*
X91216000Y-90868581D01*
X91216000Y-90487419D01*
X91141639Y-90113581D01*
X90995775Y-89761434D01*
X90784013Y-89444509D01*
X90514491Y-89174987D01*
X90197566Y-88963225D01*
X89845419Y-88817361D01*
X89622401Y-88773000D01*
X89845419Y-88728639D01*
X90197566Y-88582775D01*
X90514491Y-88371013D01*
X90784013Y-88101491D01*
X90995775Y-87784566D01*
X91141639Y-87432419D01*
X91216000Y-87058581D01*
X91216000Y-86726665D01*
X106261000Y-86726665D01*
X106261000Y-87009335D01*
X106316147Y-87286574D01*
X106424320Y-87547727D01*
X106581363Y-87782759D01*
X106781241Y-87982637D01*
X107016273Y-88139680D01*
X107277426Y-88247853D01*
X107554665Y-88303000D01*
X107837335Y-88303000D01*
X108114574Y-88247853D01*
X108375727Y-88139680D01*
X108610759Y-87982637D01*
X108810637Y-87782759D01*
X108967680Y-87547727D01*
X109075853Y-87286574D01*
X109131000Y-87009335D01*
X109131000Y-86726665D01*
X139281000Y-86726665D01*
X139281000Y-87009335D01*
X139336147Y-87286574D01*
X139444320Y-87547727D01*
X139601363Y-87782759D01*
X139801241Y-87982637D01*
X140036273Y-88139680D01*
X140297426Y-88247853D01*
X140574665Y-88303000D01*
X140857335Y-88303000D01*
X141134574Y-88247853D01*
X141395727Y-88139680D01*
X141630759Y-87982637D01*
X141830637Y-87782759D01*
X141987680Y-87547727D01*
X142095853Y-87286574D01*
X142151000Y-87009335D01*
X142151000Y-86726665D01*
X142095853Y-86449426D01*
X141987680Y-86188273D01*
X141830637Y-85953241D01*
X141630759Y-85753363D01*
X141395727Y-85596320D01*
X141134574Y-85488147D01*
X140857335Y-85433000D01*
X140574665Y-85433000D01*
X140297426Y-85488147D01*
X140036273Y-85596320D01*
X139801241Y-85753363D01*
X139601363Y-85953241D01*
X139444320Y-86188273D01*
X139336147Y-86449426D01*
X139281000Y-86726665D01*
X109131000Y-86726665D01*
X109075853Y-86449426D01*
X108967680Y-86188273D01*
X108810637Y-85953241D01*
X108610759Y-85753363D01*
X108375727Y-85596320D01*
X108114574Y-85488147D01*
X107837335Y-85433000D01*
X107554665Y-85433000D01*
X107277426Y-85488147D01*
X107016273Y-85596320D01*
X106781241Y-85753363D01*
X106581363Y-85953241D01*
X106424320Y-86188273D01*
X106316147Y-86449426D01*
X106261000Y-86726665D01*
X91216000Y-86726665D01*
X91216000Y-86677419D01*
X91141639Y-86303581D01*
X90995775Y-85951434D01*
X90784013Y-85634509D01*
X90514491Y-85364987D01*
X90197566Y-85153225D01*
X89845419Y-85007361D01*
X89622401Y-84963000D01*
X89845419Y-84918639D01*
X90197566Y-84772775D01*
X90514491Y-84561013D01*
X90784013Y-84291491D01*
X90995775Y-83974566D01*
X91141639Y-83622419D01*
X91216000Y-83248581D01*
X91216000Y-82867419D01*
X91141639Y-82493581D01*
X90995775Y-82141434D01*
X90784013Y-81824509D01*
X90514491Y-81554987D01*
X90197566Y-81343225D01*
X89845419Y-81197361D01*
X89788665Y-81186072D01*
X90581000Y-81186072D01*
X90705482Y-81173812D01*
X90825180Y-81137502D01*
X90935494Y-81078537D01*
X91032185Y-80999185D01*
X91111537Y-80902494D01*
X91170502Y-80792180D01*
X91206812Y-80672482D01*
X91219072Y-80548000D01*
X91219072Y-78348000D01*
X112507928Y-78348000D01*
X112507928Y-80148000D01*
X112520188Y-80272482D01*
X112556498Y-80392180D01*
X112615463Y-80502494D01*
X112694815Y-80599185D01*
X112791506Y-80678537D01*
X112901820Y-80737502D01*
X113021518Y-80773812D01*
X113146000Y-80786072D01*
X114946000Y-80786072D01*
X115070482Y-80773812D01*
X115190180Y-80737502D01*
X115300494Y-80678537D01*
X115397185Y-80599185D01*
X115476537Y-80502494D01*
X115535502Y-80392180D01*
X115571812Y-80272482D01*
X115584072Y-80148000D01*
X115584072Y-78348000D01*
X132827928Y-78348000D01*
X132827928Y-80148000D01*
X132840188Y-80272482D01*
X132876498Y-80392180D01*
X132935463Y-80502494D01*
X133014815Y-80599185D01*
X133111506Y-80678537D01*
X133221820Y-80737502D01*
X133341518Y-80773812D01*
X133466000Y-80786072D01*
X135266000Y-80786072D01*
X135390482Y-80773812D01*
X135510180Y-80737502D01*
X135620494Y-80678537D01*
X135717185Y-80599185D01*
X135796537Y-80502494D01*
X135855502Y-80392180D01*
X135891812Y-80272482D01*
X135904072Y-80148000D01*
X135904072Y-78348000D01*
X135891812Y-78223518D01*
X135855502Y-78103820D01*
X135796537Y-77993506D01*
X135717185Y-77896815D01*
X135620494Y-77817463D01*
X135510180Y-77758498D01*
X135491873Y-77752944D01*
X135558312Y-77686505D01*
X135726299Y-77435095D01*
X135842011Y-77155743D01*
X135901000Y-76859184D01*
X135901000Y-76566665D01*
X139281000Y-76566665D01*
X139281000Y-76849335D01*
X139336147Y-77126574D01*
X139444320Y-77387727D01*
X139601363Y-77622759D01*
X139801241Y-77822637D01*
X140036273Y-77979680D01*
X140297426Y-78087853D01*
X140574665Y-78143000D01*
X140857335Y-78143000D01*
X141134574Y-78087853D01*
X141395727Y-77979680D01*
X141630759Y-77822637D01*
X141830637Y-77622759D01*
X141987680Y-77387727D01*
X142095853Y-77126574D01*
X142151000Y-76849335D01*
X142151000Y-76566665D01*
X142095853Y-76289426D01*
X141987680Y-76028273D01*
X141830637Y-75793241D01*
X141630759Y-75593363D01*
X141395727Y-75436320D01*
X141134574Y-75328147D01*
X140857335Y-75273000D01*
X140574665Y-75273000D01*
X140297426Y-75328147D01*
X140036273Y-75436320D01*
X139801241Y-75593363D01*
X139601363Y-75793241D01*
X139444320Y-76028273D01*
X139336147Y-76289426D01*
X139281000Y-76566665D01*
X135901000Y-76566665D01*
X135901000Y-76556816D01*
X135842011Y-76260257D01*
X135726299Y-75980905D01*
X135558312Y-75729495D01*
X135344505Y-75515688D01*
X135093095Y-75347701D01*
X134813743Y-75231989D01*
X134517184Y-75173000D01*
X134214816Y-75173000D01*
X133918257Y-75231989D01*
X133638905Y-75347701D01*
X133387495Y-75515688D01*
X133173688Y-75729495D01*
X133005701Y-75980905D01*
X132889989Y-76260257D01*
X132831000Y-76556816D01*
X132831000Y-76859184D01*
X132889989Y-77155743D01*
X133005701Y-77435095D01*
X133173688Y-77686505D01*
X133240127Y-77752944D01*
X133221820Y-77758498D01*
X133111506Y-77817463D01*
X133014815Y-77896815D01*
X132935463Y-77993506D01*
X132876498Y-78103820D01*
X132840188Y-78223518D01*
X132827928Y-78348000D01*
X115584072Y-78348000D01*
X115571812Y-78223518D01*
X115535502Y-78103820D01*
X115476537Y-77993506D01*
X115397185Y-77896815D01*
X115300494Y-77817463D01*
X115190180Y-77758498D01*
X115171873Y-77752944D01*
X115238312Y-77686505D01*
X115406299Y-77435095D01*
X115522011Y-77155743D01*
X115581000Y-76859184D01*
X115581000Y-76556816D01*
X115522011Y-76260257D01*
X115406299Y-75980905D01*
X115238312Y-75729495D01*
X115024505Y-75515688D01*
X114773095Y-75347701D01*
X114493743Y-75231989D01*
X114197184Y-75173000D01*
X113894816Y-75173000D01*
X113598257Y-75231989D01*
X113318905Y-75347701D01*
X113067495Y-75515688D01*
X112853688Y-75729495D01*
X112685701Y-75980905D01*
X112569989Y-76260257D01*
X112511000Y-76556816D01*
X112511000Y-76859184D01*
X112569989Y-77155743D01*
X112685701Y-77435095D01*
X112853688Y-77686505D01*
X112920127Y-77752944D01*
X112901820Y-77758498D01*
X112791506Y-77817463D01*
X112694815Y-77896815D01*
X112615463Y-77993506D01*
X112556498Y-78103820D01*
X112520188Y-78223518D01*
X112507928Y-78348000D01*
X91219072Y-78348000D01*
X91219072Y-77948000D01*
X91206812Y-77823518D01*
X91170502Y-77703820D01*
X91111537Y-77593506D01*
X91032185Y-77496815D01*
X90935494Y-77417463D01*
X90825180Y-77358498D01*
X90705482Y-77322188D01*
X90581000Y-77309928D01*
X87981000Y-77309928D01*
X87856518Y-77322188D01*
X87736820Y-77358498D01*
X87626506Y-77417463D01*
X87529815Y-77496815D01*
X87450463Y-77593506D01*
X87391498Y-77703820D01*
X87355188Y-77823518D01*
X87342928Y-77948000D01*
X85496000Y-77948000D01*
X85496000Y-69693000D01*
X87342928Y-69693000D01*
X87342928Y-72293000D01*
X87355188Y-72417482D01*
X87391498Y-72537180D01*
X87450463Y-72647494D01*
X87529815Y-72744185D01*
X87626506Y-72823537D01*
X87736820Y-72882502D01*
X87856518Y-72918812D01*
X87981000Y-72931072D01*
X88773335Y-72931072D01*
X88716581Y-72942361D01*
X88364434Y-73088225D01*
X88047509Y-73299987D01*
X87777987Y-73569509D01*
X87566225Y-73886434D01*
X87420361Y-74238581D01*
X87346000Y-74612419D01*
X87346000Y-74993581D01*
X87420361Y-75367419D01*
X87566225Y-75719566D01*
X87777987Y-76036491D01*
X88047509Y-76306013D01*
X88364434Y-76517775D01*
X88716581Y-76663639D01*
X89090419Y-76738000D01*
X89471581Y-76738000D01*
X89845419Y-76663639D01*
X90079535Y-76566665D01*
X106261000Y-76566665D01*
X106261000Y-76849335D01*
X106316147Y-77126574D01*
X106424320Y-77387727D01*
X106581363Y-77622759D01*
X106781241Y-77822637D01*
X107016273Y-77979680D01*
X107277426Y-78087853D01*
X107554665Y-78143000D01*
X107837335Y-78143000D01*
X108114574Y-78087853D01*
X108375727Y-77979680D01*
X108610759Y-77822637D01*
X108810637Y-77622759D01*
X108967680Y-77387727D01*
X109075853Y-77126574D01*
X109131000Y-76849335D01*
X109131000Y-76566665D01*
X109075853Y-76289426D01*
X108967680Y-76028273D01*
X108810637Y-75793241D01*
X108610759Y-75593363D01*
X108375727Y-75436320D01*
X108114574Y-75328147D01*
X107837335Y-75273000D01*
X107554665Y-75273000D01*
X107277426Y-75328147D01*
X107016273Y-75436320D01*
X106781241Y-75593363D01*
X106581363Y-75793241D01*
X106424320Y-76028273D01*
X106316147Y-76289426D01*
X106261000Y-76566665D01*
X90079535Y-76566665D01*
X90197566Y-76517775D01*
X90514491Y-76306013D01*
X90784013Y-76036491D01*
X90995775Y-75719566D01*
X91141639Y-75367419D01*
X91216000Y-74993581D01*
X91216000Y-74612419D01*
X91141639Y-74238581D01*
X90995775Y-73886434D01*
X90784013Y-73569509D01*
X90514491Y-73299987D01*
X90197566Y-73088225D01*
X89845419Y-72942361D01*
X89788665Y-72931072D01*
X90581000Y-72931072D01*
X90705482Y-72918812D01*
X90825180Y-72882502D01*
X90935494Y-72823537D01*
X91032185Y-72744185D01*
X91111537Y-72647494D01*
X91170502Y-72537180D01*
X91206812Y-72417482D01*
X91219072Y-72293000D01*
X91219072Y-71486665D01*
X106261000Y-71486665D01*
X106261000Y-71769335D01*
X106316147Y-72046574D01*
X106424320Y-72307727D01*
X106581363Y-72542759D01*
X106781241Y-72742637D01*
X107016273Y-72899680D01*
X107277426Y-73007853D01*
X107554665Y-73063000D01*
X107837335Y-73063000D01*
X108114574Y-73007853D01*
X108375727Y-72899680D01*
X108610759Y-72742637D01*
X108810637Y-72542759D01*
X108967680Y-72307727D01*
X109075853Y-72046574D01*
X109131000Y-71769335D01*
X109131000Y-71486665D01*
X139281000Y-71486665D01*
X139281000Y-71769335D01*
X139336147Y-72046574D01*
X139444320Y-72307727D01*
X139601363Y-72542759D01*
X139801241Y-72742637D01*
X140036273Y-72899680D01*
X140297426Y-73007853D01*
X140574665Y-73063000D01*
X140857335Y-73063000D01*
X141134574Y-73007853D01*
X141395727Y-72899680D01*
X141630759Y-72742637D01*
X141830637Y-72542759D01*
X141987680Y-72307727D01*
X142095853Y-72046574D01*
X142151000Y-71769335D01*
X142151000Y-71486665D01*
X142095853Y-71209426D01*
X141987680Y-70948273D01*
X141830637Y-70713241D01*
X141630759Y-70513363D01*
X141395727Y-70356320D01*
X141134574Y-70248147D01*
X140857335Y-70193000D01*
X140574665Y-70193000D01*
X140297426Y-70248147D01*
X140036273Y-70356320D01*
X139801241Y-70513363D01*
X139601363Y-70713241D01*
X139444320Y-70948273D01*
X139336147Y-71209426D01*
X139281000Y-71486665D01*
X109131000Y-71486665D01*
X109075853Y-71209426D01*
X108967680Y-70948273D01*
X108810637Y-70713241D01*
X108610759Y-70513363D01*
X108375727Y-70356320D01*
X108114574Y-70248147D01*
X107837335Y-70193000D01*
X107554665Y-70193000D01*
X107277426Y-70248147D01*
X107016273Y-70356320D01*
X106781241Y-70513363D01*
X106581363Y-70713241D01*
X106424320Y-70948273D01*
X106316147Y-71209426D01*
X106261000Y-71486665D01*
X91219072Y-71486665D01*
X91219072Y-69693000D01*
X91206812Y-69568518D01*
X91170502Y-69448820D01*
X91111537Y-69338506D01*
X91032185Y-69241815D01*
X90935494Y-69162463D01*
X90825180Y-69103498D01*
X90705482Y-69067188D01*
X90581000Y-69054928D01*
X89783817Y-69054928D01*
X90071690Y-68959333D01*
X90318683Y-68827312D01*
X90450619Y-68532224D01*
X89281000Y-67362605D01*
X88111381Y-68532224D01*
X88243317Y-68827312D01*
X88584045Y-68998159D01*
X88790426Y-69054928D01*
X87981000Y-69054928D01*
X87856518Y-69067188D01*
X87736820Y-69103498D01*
X87626506Y-69162463D01*
X87529815Y-69241815D01*
X87450463Y-69338506D01*
X87391498Y-69448820D01*
X87355188Y-69568518D01*
X87342928Y-69693000D01*
X85496000Y-69693000D01*
X85496000Y-67233729D01*
X87337299Y-67233729D01*
X87384543Y-67611951D01*
X87504667Y-67973690D01*
X87636688Y-68220683D01*
X87931776Y-68352619D01*
X89101395Y-67183000D01*
X89460605Y-67183000D01*
X90630224Y-68352619D01*
X90925312Y-68220683D01*
X91096159Y-67879955D01*
X91197250Y-67512443D01*
X91224701Y-67132271D01*
X91177457Y-66754049D01*
X91057333Y-66392310D01*
X90925312Y-66145317D01*
X90630224Y-66013381D01*
X89460605Y-67183000D01*
X89101395Y-67183000D01*
X87931776Y-66013381D01*
X87636688Y-66145317D01*
X87465841Y-66486045D01*
X87364750Y-66853557D01*
X87337299Y-67233729D01*
X85496000Y-67233729D01*
X85496000Y-62073000D01*
X87342928Y-62073000D01*
X87342928Y-64673000D01*
X87355188Y-64797482D01*
X87391498Y-64917180D01*
X87450463Y-65027494D01*
X87529815Y-65124185D01*
X87626506Y-65203537D01*
X87736820Y-65262502D01*
X87856518Y-65298812D01*
X87981000Y-65311072D01*
X88778183Y-65311072D01*
X88490310Y-65406667D01*
X88243317Y-65538688D01*
X88111381Y-65833776D01*
X89281000Y-67003395D01*
X90450619Y-65833776D01*
X90318683Y-65538688D01*
X89977955Y-65367841D01*
X89771574Y-65311072D01*
X90581000Y-65311072D01*
X90705482Y-65298812D01*
X90825180Y-65262502D01*
X90935494Y-65203537D01*
X91032185Y-65124185D01*
X91111537Y-65027494D01*
X91170502Y-64917180D01*
X91206812Y-64797482D01*
X91219072Y-64673000D01*
X91219072Y-63108000D01*
X112507928Y-63108000D01*
X112507928Y-64908000D01*
X112520188Y-65032482D01*
X112556498Y-65152180D01*
X112615463Y-65262494D01*
X112694815Y-65359185D01*
X112791506Y-65438537D01*
X112901820Y-65497502D01*
X113021518Y-65533812D01*
X113146000Y-65546072D01*
X114946000Y-65546072D01*
X115070482Y-65533812D01*
X115190180Y-65497502D01*
X115300494Y-65438537D01*
X115397185Y-65359185D01*
X115476537Y-65262494D01*
X115535502Y-65152180D01*
X115571812Y-65032482D01*
X115584072Y-64908000D01*
X115584072Y-63108000D01*
X132827928Y-63108000D01*
X132827928Y-64908000D01*
X132840188Y-65032482D01*
X132876498Y-65152180D01*
X132935463Y-65262494D01*
X133014815Y-65359185D01*
X133111506Y-65438537D01*
X133221820Y-65497502D01*
X133341518Y-65533812D01*
X133466000Y-65546072D01*
X135266000Y-65546072D01*
X135390482Y-65533812D01*
X135510180Y-65497502D01*
X135620494Y-65438537D01*
X135717185Y-65359185D01*
X135796537Y-65262494D01*
X135855502Y-65152180D01*
X135891812Y-65032482D01*
X135904072Y-64908000D01*
X135904072Y-63108000D01*
X135891812Y-62983518D01*
X135855502Y-62863820D01*
X135796537Y-62753506D01*
X135717185Y-62656815D01*
X135620494Y-62577463D01*
X135510180Y-62518498D01*
X135491873Y-62512944D01*
X135558312Y-62446505D01*
X135726299Y-62195095D01*
X135842011Y-61915743D01*
X135901000Y-61619184D01*
X135901000Y-61326665D01*
X139281000Y-61326665D01*
X139281000Y-61609335D01*
X139336147Y-61886574D01*
X139444320Y-62147727D01*
X139601363Y-62382759D01*
X139801241Y-62582637D01*
X140036273Y-62739680D01*
X140297426Y-62847853D01*
X140574665Y-62903000D01*
X140857335Y-62903000D01*
X141134574Y-62847853D01*
X141395727Y-62739680D01*
X141630759Y-62582637D01*
X141830637Y-62382759D01*
X141987680Y-62147727D01*
X142095853Y-61886574D01*
X142151000Y-61609335D01*
X142151000Y-61326665D01*
X142095853Y-61049426D01*
X141987680Y-60788273D01*
X141830637Y-60553241D01*
X141630759Y-60353363D01*
X141395727Y-60196320D01*
X141134574Y-60088147D01*
X140857335Y-60033000D01*
X140574665Y-60033000D01*
X140297426Y-60088147D01*
X140036273Y-60196320D01*
X139801241Y-60353363D01*
X139601363Y-60553241D01*
X139444320Y-60788273D01*
X139336147Y-61049426D01*
X139281000Y-61326665D01*
X135901000Y-61326665D01*
X135901000Y-61316816D01*
X135842011Y-61020257D01*
X135726299Y-60740905D01*
X135558312Y-60489495D01*
X135344505Y-60275688D01*
X135093095Y-60107701D01*
X134813743Y-59991989D01*
X134517184Y-59933000D01*
X134214816Y-59933000D01*
X133918257Y-59991989D01*
X133638905Y-60107701D01*
X133387495Y-60275688D01*
X133173688Y-60489495D01*
X133005701Y-60740905D01*
X132889989Y-61020257D01*
X132831000Y-61316816D01*
X132831000Y-61619184D01*
X132889989Y-61915743D01*
X133005701Y-62195095D01*
X133173688Y-62446505D01*
X133240127Y-62512944D01*
X133221820Y-62518498D01*
X133111506Y-62577463D01*
X133014815Y-62656815D01*
X132935463Y-62753506D01*
X132876498Y-62863820D01*
X132840188Y-62983518D01*
X132827928Y-63108000D01*
X115584072Y-63108000D01*
X115571812Y-62983518D01*
X115535502Y-62863820D01*
X115476537Y-62753506D01*
X115397185Y-62656815D01*
X115300494Y-62577463D01*
X115190180Y-62518498D01*
X115171873Y-62512944D01*
X115238312Y-62446505D01*
X115406299Y-62195095D01*
X115522011Y-61915743D01*
X115581000Y-61619184D01*
X115581000Y-61316816D01*
X115522011Y-61020257D01*
X115406299Y-60740905D01*
X115238312Y-60489495D01*
X115024505Y-60275688D01*
X114773095Y-60107701D01*
X114493743Y-59991989D01*
X114197184Y-59933000D01*
X113894816Y-59933000D01*
X113598257Y-59991989D01*
X113318905Y-60107701D01*
X113067495Y-60275688D01*
X112853688Y-60489495D01*
X112685701Y-60740905D01*
X112569989Y-61020257D01*
X112511000Y-61316816D01*
X112511000Y-61619184D01*
X112569989Y-61915743D01*
X112685701Y-62195095D01*
X112853688Y-62446505D01*
X112920127Y-62512944D01*
X112901820Y-62518498D01*
X112791506Y-62577463D01*
X112694815Y-62656815D01*
X112615463Y-62753506D01*
X112556498Y-62863820D01*
X112520188Y-62983518D01*
X112507928Y-63108000D01*
X91219072Y-63108000D01*
X91219072Y-62073000D01*
X91206812Y-61948518D01*
X91170502Y-61828820D01*
X91111537Y-61718506D01*
X91032185Y-61621815D01*
X90935494Y-61542463D01*
X90825180Y-61483498D01*
X90705482Y-61447188D01*
X90581000Y-61434928D01*
X87981000Y-61434928D01*
X87856518Y-61447188D01*
X87736820Y-61483498D01*
X87626506Y-61542463D01*
X87529815Y-61621815D01*
X87450463Y-61718506D01*
X87391498Y-61828820D01*
X87355188Y-61948518D01*
X87342928Y-62073000D01*
X85496000Y-62073000D01*
X85496000Y-61326665D01*
X106261000Y-61326665D01*
X106261000Y-61609335D01*
X106316147Y-61886574D01*
X106424320Y-62147727D01*
X106581363Y-62382759D01*
X106781241Y-62582637D01*
X107016273Y-62739680D01*
X107277426Y-62847853D01*
X107554665Y-62903000D01*
X107837335Y-62903000D01*
X108114574Y-62847853D01*
X108375727Y-62739680D01*
X108610759Y-62582637D01*
X108810637Y-62382759D01*
X108967680Y-62147727D01*
X109075853Y-61886574D01*
X109131000Y-61609335D01*
X109131000Y-61326665D01*
X109075853Y-61049426D01*
X108967680Y-60788273D01*
X108810637Y-60553241D01*
X108610759Y-60353363D01*
X108375727Y-60196320D01*
X108114574Y-60088147D01*
X107837335Y-60033000D01*
X107554665Y-60033000D01*
X107277426Y-60088147D01*
X107016273Y-60196320D01*
X106781241Y-60353363D01*
X106581363Y-60553241D01*
X106424320Y-60788273D01*
X106316147Y-61049426D01*
X106261000Y-61326665D01*
X85496000Y-61326665D01*
X85496000Y-56388000D01*
X96395509Y-56388000D01*
X96417423Y-56610499D01*
X96482324Y-56824447D01*
X96587716Y-57021623D01*
X96729551Y-57194449D01*
X96902377Y-57336284D01*
X97099553Y-57441676D01*
X97313501Y-57506577D01*
X97480248Y-57523000D01*
X106811716Y-57523000D01*
X107016273Y-57659680D01*
X107277426Y-57767853D01*
X107554665Y-57823000D01*
X107837335Y-57823000D01*
X108114574Y-57767853D01*
X108375727Y-57659680D01*
X108610759Y-57502637D01*
X108810637Y-57302759D01*
X108967680Y-57067727D01*
X109075853Y-56806574D01*
X109131000Y-56529335D01*
X109131000Y-56246665D01*
X139281000Y-56246665D01*
X139281000Y-56529335D01*
X139336147Y-56806574D01*
X139444320Y-57067727D01*
X139601363Y-57302759D01*
X139801241Y-57502637D01*
X140036273Y-57659680D01*
X140297426Y-57767853D01*
X140574665Y-57823000D01*
X140857335Y-57823000D01*
X141134574Y-57767853D01*
X141395727Y-57659680D01*
X141630759Y-57502637D01*
X141830637Y-57302759D01*
X141987680Y-57067727D01*
X142095853Y-56806574D01*
X142151000Y-56529335D01*
X142151000Y-56246665D01*
X142095853Y-55969426D01*
X141987680Y-55708273D01*
X141830637Y-55473241D01*
X141630759Y-55273363D01*
X141395727Y-55116320D01*
X141134574Y-55008147D01*
X140857335Y-54953000D01*
X140574665Y-54953000D01*
X140297426Y-55008147D01*
X140036273Y-55116320D01*
X139801241Y-55273363D01*
X139601363Y-55473241D01*
X139444320Y-55708273D01*
X139336147Y-55969426D01*
X139281000Y-56246665D01*
X109131000Y-56246665D01*
X109075853Y-55969426D01*
X108967680Y-55708273D01*
X108810637Y-55473241D01*
X108610759Y-55273363D01*
X108375727Y-55116320D01*
X108114574Y-55008147D01*
X107837335Y-54953000D01*
X107554665Y-54953000D01*
X107277426Y-55008147D01*
X107016273Y-55116320D01*
X106811716Y-55253000D01*
X97480248Y-55253000D01*
X97313501Y-55269423D01*
X97099553Y-55334324D01*
X96902377Y-55439716D01*
X96729551Y-55581551D01*
X96587716Y-55754377D01*
X96482324Y-55951553D01*
X96417423Y-56165501D01*
X96395509Y-56388000D01*
X85496000Y-56388000D01*
X85496000Y-48698456D01*
X87393000Y-48698456D01*
X87393000Y-49345544D01*
X87519240Y-49980199D01*
X87766871Y-50578031D01*
X88126374Y-51116066D01*
X88583934Y-51573626D01*
X89121969Y-51933129D01*
X89719801Y-52180760D01*
X90354456Y-52307000D01*
X91001544Y-52307000D01*
X91636199Y-52180760D01*
X92234031Y-51933129D01*
X92772066Y-51573626D01*
X93229626Y-51116066D01*
X93589129Y-50578031D01*
X93836760Y-49980199D01*
X93963000Y-49345544D01*
X93963000Y-48698456D01*
X93836760Y-48063801D01*
X93755657Y-47868000D01*
X112507928Y-47868000D01*
X112507928Y-49668000D01*
X112520188Y-49792482D01*
X112556498Y-49912180D01*
X112615463Y-50022494D01*
X112694815Y-50119185D01*
X112791506Y-50198537D01*
X112901820Y-50257502D01*
X113021518Y-50293812D01*
X113146000Y-50306072D01*
X114946000Y-50306072D01*
X115070482Y-50293812D01*
X115190180Y-50257502D01*
X115300494Y-50198537D01*
X115397185Y-50119185D01*
X115476537Y-50022494D01*
X115535502Y-49912180D01*
X115571812Y-49792482D01*
X115584072Y-49668000D01*
X115584072Y-47868000D01*
X132827928Y-47868000D01*
X132827928Y-49668000D01*
X132840188Y-49792482D01*
X132876498Y-49912180D01*
X132935463Y-50022494D01*
X133014815Y-50119185D01*
X133111506Y-50198537D01*
X133221820Y-50257502D01*
X133341518Y-50293812D01*
X133466000Y-50306072D01*
X135266000Y-50306072D01*
X135390482Y-50293812D01*
X135510180Y-50257502D01*
X135620494Y-50198537D01*
X135717185Y-50119185D01*
X135796537Y-50022494D01*
X135855502Y-49912180D01*
X135891812Y-49792482D01*
X135904072Y-49668000D01*
X135904072Y-48698456D01*
X147337000Y-48698456D01*
X147337000Y-49345544D01*
X147463240Y-49980199D01*
X147710871Y-50578031D01*
X148070374Y-51116066D01*
X148527934Y-51573626D01*
X149065969Y-51933129D01*
X149663801Y-52180760D01*
X150298456Y-52307000D01*
X150945544Y-52307000D01*
X151580199Y-52180760D01*
X152178031Y-51933129D01*
X152716066Y-51573626D01*
X153173626Y-51116066D01*
X153533129Y-50578031D01*
X153780760Y-49980199D01*
X153907000Y-49345544D01*
X153907000Y-48698456D01*
X153780760Y-48063801D01*
X153533129Y-47465969D01*
X153173626Y-46927934D01*
X152716066Y-46470374D01*
X152178031Y-46110871D01*
X151580199Y-45863240D01*
X150945544Y-45737000D01*
X150298456Y-45737000D01*
X149663801Y-45863240D01*
X149065969Y-46110871D01*
X148527934Y-46470374D01*
X148070374Y-46927934D01*
X147710871Y-47465969D01*
X147463240Y-48063801D01*
X147337000Y-48698456D01*
X135904072Y-48698456D01*
X135904072Y-47868000D01*
X135891812Y-47743518D01*
X135855502Y-47623820D01*
X135796537Y-47513506D01*
X135717185Y-47416815D01*
X135620494Y-47337463D01*
X135510180Y-47278498D01*
X135491873Y-47272944D01*
X135558312Y-47206505D01*
X135726299Y-46955095D01*
X135842011Y-46675743D01*
X135901000Y-46379184D01*
X135901000Y-46086665D01*
X139281000Y-46086665D01*
X139281000Y-46369335D01*
X139336147Y-46646574D01*
X139444320Y-46907727D01*
X139601363Y-47142759D01*
X139801241Y-47342637D01*
X140036273Y-47499680D01*
X140297426Y-47607853D01*
X140574665Y-47663000D01*
X140857335Y-47663000D01*
X141134574Y-47607853D01*
X141395727Y-47499680D01*
X141630759Y-47342637D01*
X141830637Y-47142759D01*
X141987680Y-46907727D01*
X142095853Y-46646574D01*
X142151000Y-46369335D01*
X142151000Y-46086665D01*
X142095853Y-45809426D01*
X141987680Y-45548273D01*
X141830637Y-45313241D01*
X141630759Y-45113363D01*
X141395727Y-44956320D01*
X141134574Y-44848147D01*
X140857335Y-44793000D01*
X140574665Y-44793000D01*
X140297426Y-44848147D01*
X140036273Y-44956320D01*
X139801241Y-45113363D01*
X139601363Y-45313241D01*
X139444320Y-45548273D01*
X139336147Y-45809426D01*
X139281000Y-46086665D01*
X135901000Y-46086665D01*
X135901000Y-46076816D01*
X135842011Y-45780257D01*
X135726299Y-45500905D01*
X135558312Y-45249495D01*
X135344505Y-45035688D01*
X135093095Y-44867701D01*
X134813743Y-44751989D01*
X134517184Y-44693000D01*
X134214816Y-44693000D01*
X133918257Y-44751989D01*
X133638905Y-44867701D01*
X133387495Y-45035688D01*
X133173688Y-45249495D01*
X133005701Y-45500905D01*
X132889989Y-45780257D01*
X132831000Y-46076816D01*
X132831000Y-46379184D01*
X132889989Y-46675743D01*
X133005701Y-46955095D01*
X133173688Y-47206505D01*
X133240127Y-47272944D01*
X133221820Y-47278498D01*
X133111506Y-47337463D01*
X133014815Y-47416815D01*
X132935463Y-47513506D01*
X132876498Y-47623820D01*
X132840188Y-47743518D01*
X132827928Y-47868000D01*
X115584072Y-47868000D01*
X115571812Y-47743518D01*
X115535502Y-47623820D01*
X115476537Y-47513506D01*
X115397185Y-47416815D01*
X115300494Y-47337463D01*
X115190180Y-47278498D01*
X115171873Y-47272944D01*
X115238312Y-47206505D01*
X115406299Y-46955095D01*
X115522011Y-46675743D01*
X115581000Y-46379184D01*
X115581000Y-46076816D01*
X115522011Y-45780257D01*
X115406299Y-45500905D01*
X115238312Y-45249495D01*
X115024505Y-45035688D01*
X114773095Y-44867701D01*
X114493743Y-44751989D01*
X114197184Y-44693000D01*
X113894816Y-44693000D01*
X113598257Y-44751989D01*
X113318905Y-44867701D01*
X113067495Y-45035688D01*
X112853688Y-45249495D01*
X112685701Y-45500905D01*
X112569989Y-45780257D01*
X112511000Y-46076816D01*
X112511000Y-46379184D01*
X112569989Y-46675743D01*
X112685701Y-46955095D01*
X112853688Y-47206505D01*
X112920127Y-47272944D01*
X112901820Y-47278498D01*
X112791506Y-47337463D01*
X112694815Y-47416815D01*
X112615463Y-47513506D01*
X112556498Y-47623820D01*
X112520188Y-47743518D01*
X112507928Y-47868000D01*
X93755657Y-47868000D01*
X93589129Y-47465969D01*
X93229626Y-46927934D01*
X92772066Y-46470374D01*
X92234031Y-46110871D01*
X92175593Y-46086665D01*
X106261000Y-46086665D01*
X106261000Y-46369335D01*
X106316147Y-46646574D01*
X106424320Y-46907727D01*
X106581363Y-47142759D01*
X106781241Y-47342637D01*
X107016273Y-47499680D01*
X107277426Y-47607853D01*
X107554665Y-47663000D01*
X107837335Y-47663000D01*
X108114574Y-47607853D01*
X108375727Y-47499680D01*
X108610759Y-47342637D01*
X108810637Y-47142759D01*
X108967680Y-46907727D01*
X109075853Y-46646574D01*
X109131000Y-46369335D01*
X109131000Y-46086665D01*
X109075853Y-45809426D01*
X108967680Y-45548273D01*
X108810637Y-45313241D01*
X108610759Y-45113363D01*
X108375727Y-44956320D01*
X108114574Y-44848147D01*
X107837335Y-44793000D01*
X107554665Y-44793000D01*
X107277426Y-44848147D01*
X107016273Y-44956320D01*
X106781241Y-45113363D01*
X106581363Y-45313241D01*
X106424320Y-45548273D01*
X106316147Y-45809426D01*
X106261000Y-46086665D01*
X92175593Y-46086665D01*
X91636199Y-45863240D01*
X91001544Y-45737000D01*
X90354456Y-45737000D01*
X89719801Y-45863240D01*
X89121969Y-46110871D01*
X88583934Y-46470374D01*
X88126374Y-46927934D01*
X87766871Y-47465969D01*
X87519240Y-48063801D01*
X87393000Y-48698456D01*
X85496000Y-48698456D01*
X85496000Y-42824000D01*
X155804000Y-42824000D01*
X155804001Y-149200000D01*
G37*
X155804001Y-149200000D02*
X141153533Y-149200000D01*
X141395727Y-149099680D01*
X141630759Y-148942637D01*
X141830637Y-148742759D01*
X141987680Y-148507727D01*
X142095853Y-148246574D01*
X142151000Y-147969335D01*
X142151000Y-147686665D01*
X142095853Y-147409426D01*
X141987680Y-147148273D01*
X141830637Y-146913241D01*
X141630759Y-146713363D01*
X141395727Y-146556320D01*
X141134574Y-146448147D01*
X140857335Y-146393000D01*
X140574665Y-146393000D01*
X140297426Y-146448147D01*
X140036273Y-146556320D01*
X139801241Y-146713363D01*
X139601363Y-146913241D01*
X139444320Y-147148273D01*
X139336147Y-147409426D01*
X139281000Y-147686665D01*
X139281000Y-147969335D01*
X139336147Y-148246574D01*
X139444320Y-148507727D01*
X139601363Y-148742759D01*
X139801241Y-148942637D01*
X140036273Y-149099680D01*
X140278467Y-149200000D01*
X108133533Y-149200000D01*
X108375727Y-149099680D01*
X108610759Y-148942637D01*
X108810637Y-148742759D01*
X108967680Y-148507727D01*
X109075853Y-148246574D01*
X109131000Y-147969335D01*
X109131000Y-147686665D01*
X109075853Y-147409426D01*
X108967680Y-147148273D01*
X108810637Y-146913241D01*
X108610759Y-146713363D01*
X108375727Y-146556320D01*
X108114574Y-146448147D01*
X107837335Y-146393000D01*
X107554665Y-146393000D01*
X107277426Y-146448147D01*
X107016273Y-146556320D01*
X106781241Y-146713363D01*
X106581363Y-146913241D01*
X106424320Y-147148273D01*
X106316147Y-147409426D01*
X106261000Y-147686665D01*
X106261000Y-147969335D01*
X106316147Y-148246574D01*
X106424320Y-148507727D01*
X106581363Y-148742759D01*
X106781241Y-148942637D01*
X107016273Y-149099680D01*
X107258467Y-149200000D01*
X85496000Y-149200000D01*
X85496000Y-143694456D01*
X87393000Y-143694456D01*
X87393000Y-144341544D01*
X87519240Y-144976199D01*
X87766871Y-145574031D01*
X88126374Y-146112066D01*
X88583934Y-146569626D01*
X89121969Y-146929129D01*
X89719801Y-147176760D01*
X90354456Y-147303000D01*
X91001544Y-147303000D01*
X91636199Y-147176760D01*
X92234031Y-146929129D01*
X92772066Y-146569626D01*
X93229626Y-146112066D01*
X93589129Y-145574031D01*
X93836760Y-144976199D01*
X93963000Y-144341544D01*
X93963000Y-143694456D01*
X147337000Y-143694456D01*
X147337000Y-144341544D01*
X147463240Y-144976199D01*
X147710871Y-145574031D01*
X148070374Y-146112066D01*
X148527934Y-146569626D01*
X149065969Y-146929129D01*
X149663801Y-147176760D01*
X150298456Y-147303000D01*
X150945544Y-147303000D01*
X151580199Y-147176760D01*
X152178031Y-146929129D01*
X152716066Y-146569626D01*
X153173626Y-146112066D01*
X153533129Y-145574031D01*
X153780760Y-144976199D01*
X153907000Y-144341544D01*
X153907000Y-143694456D01*
X153780760Y-143059801D01*
X153533129Y-142461969D01*
X153173626Y-141923934D01*
X152716066Y-141466374D01*
X152178031Y-141106871D01*
X151580199Y-140859240D01*
X150945544Y-140733000D01*
X150298456Y-140733000D01*
X149663801Y-140859240D01*
X149065969Y-141106871D01*
X148527934Y-141466374D01*
X148070374Y-141923934D01*
X147710871Y-142461969D01*
X147463240Y-143059801D01*
X147337000Y-143694456D01*
X93963000Y-143694456D01*
X93836760Y-143059801D01*
X93589129Y-142461969D01*
X93229626Y-141923934D01*
X92772066Y-141466374D01*
X92234031Y-141106871D01*
X91636199Y-140859240D01*
X91001544Y-140733000D01*
X90354456Y-140733000D01*
X89719801Y-140859240D01*
X89121969Y-141106871D01*
X88583934Y-141466374D01*
X88126374Y-141923934D01*
X87766871Y-142461969D01*
X87519240Y-143059801D01*
X87393000Y-143694456D01*
X85496000Y-143694456D01*
X85496000Y-139308000D01*
X112507928Y-139308000D01*
X112507928Y-141108000D01*
X112520188Y-141232482D01*
X112556498Y-141352180D01*
X112615463Y-141462494D01*
X112694815Y-141559185D01*
X112791506Y-141638537D01*
X112901820Y-141697502D01*
X113021518Y-141733812D01*
X113146000Y-141746072D01*
X114946000Y-141746072D01*
X115070482Y-141733812D01*
X115190180Y-141697502D01*
X115300494Y-141638537D01*
X115397185Y-141559185D01*
X115476537Y-141462494D01*
X115535502Y-141352180D01*
X115571812Y-141232482D01*
X115584072Y-141108000D01*
X115584072Y-139308000D01*
X132827928Y-139308000D01*
X132827928Y-141108000D01*
X132840188Y-141232482D01*
X132876498Y-141352180D01*
X132935463Y-141462494D01*
X133014815Y-141559185D01*
X133111506Y-141638537D01*
X133221820Y-141697502D01*
X133341518Y-141733812D01*
X133466000Y-141746072D01*
X135266000Y-141746072D01*
X135390482Y-141733812D01*
X135510180Y-141697502D01*
X135620494Y-141638537D01*
X135717185Y-141559185D01*
X135796537Y-141462494D01*
X135855502Y-141352180D01*
X135891812Y-141232482D01*
X135904072Y-141108000D01*
X135904072Y-139308000D01*
X135891812Y-139183518D01*
X135855502Y-139063820D01*
X135796537Y-138953506D01*
X135717185Y-138856815D01*
X135620494Y-138777463D01*
X135510180Y-138718498D01*
X135491873Y-138712944D01*
X135558312Y-138646505D01*
X135726299Y-138395095D01*
X135842011Y-138115743D01*
X135901000Y-137819184D01*
X135901000Y-137526665D01*
X139281000Y-137526665D01*
X139281000Y-137809335D01*
X139336147Y-138086574D01*
X139444320Y-138347727D01*
X139601363Y-138582759D01*
X139801241Y-138782637D01*
X140036273Y-138939680D01*
X140297426Y-139047853D01*
X140574665Y-139103000D01*
X140857335Y-139103000D01*
X141134574Y-139047853D01*
X141395727Y-138939680D01*
X141630759Y-138782637D01*
X141830637Y-138582759D01*
X141987680Y-138347727D01*
X142095853Y-138086574D01*
X142151000Y-137809335D01*
X142151000Y-137526665D01*
X142095853Y-137249426D01*
X141987680Y-136988273D01*
X141830637Y-136753241D01*
X141630759Y-136553363D01*
X141395727Y-136396320D01*
X141134574Y-136288147D01*
X140857335Y-136233000D01*
X140574665Y-136233000D01*
X140297426Y-136288147D01*
X140036273Y-136396320D01*
X139801241Y-136553363D01*
X139601363Y-136753241D01*
X139444320Y-136988273D01*
X139336147Y-137249426D01*
X139281000Y-137526665D01*
X135901000Y-137526665D01*
X135901000Y-137516816D01*
X135842011Y-137220257D01*
X135726299Y-136940905D01*
X135558312Y-136689495D01*
X135344505Y-136475688D01*
X135093095Y-136307701D01*
X134813743Y-136191989D01*
X134517184Y-136133000D01*
X134214816Y-136133000D01*
X133918257Y-136191989D01*
X133638905Y-136307701D01*
X133387495Y-136475688D01*
X133173688Y-136689495D01*
X133005701Y-136940905D01*
X132889989Y-137220257D01*
X132831000Y-137516816D01*
X132831000Y-137819184D01*
X132889989Y-138115743D01*
X133005701Y-138395095D01*
X133173688Y-138646505D01*
X133240127Y-138712944D01*
X133221820Y-138718498D01*
X133111506Y-138777463D01*
X133014815Y-138856815D01*
X132935463Y-138953506D01*
X132876498Y-139063820D01*
X132840188Y-139183518D01*
X132827928Y-139308000D01*
X115584072Y-139308000D01*
X115571812Y-139183518D01*
X115535502Y-139063820D01*
X115476537Y-138953506D01*
X115397185Y-138856815D01*
X115300494Y-138777463D01*
X115190180Y-138718498D01*
X115171873Y-138712944D01*
X115238312Y-138646505D01*
X115406299Y-138395095D01*
X115522011Y-138115743D01*
X115581000Y-137819184D01*
X115581000Y-137516816D01*
X115522011Y-137220257D01*
X115406299Y-136940905D01*
X115238312Y-136689495D01*
X115024505Y-136475688D01*
X114773095Y-136307701D01*
X114493743Y-136191989D01*
X114197184Y-136133000D01*
X113894816Y-136133000D01*
X113598257Y-136191989D01*
X113318905Y-136307701D01*
X113067495Y-136475688D01*
X112853688Y-136689495D01*
X112685701Y-136940905D01*
X112569989Y-137220257D01*
X112511000Y-137516816D01*
X112511000Y-137819184D01*
X112569989Y-138115743D01*
X112685701Y-138395095D01*
X112853688Y-138646505D01*
X112920127Y-138712944D01*
X112901820Y-138718498D01*
X112791506Y-138777463D01*
X112694815Y-138856815D01*
X112615463Y-138953506D01*
X112556498Y-139063820D01*
X112520188Y-139183518D01*
X112507928Y-139308000D01*
X85496000Y-139308000D01*
X85496000Y-137526665D01*
X106261000Y-137526665D01*
X106261000Y-137809335D01*
X106316147Y-138086574D01*
X106424320Y-138347727D01*
X106581363Y-138582759D01*
X106781241Y-138782637D01*
X107016273Y-138939680D01*
X107277426Y-139047853D01*
X107554665Y-139103000D01*
X107837335Y-139103000D01*
X108114574Y-139047853D01*
X108375727Y-138939680D01*
X108610759Y-138782637D01*
X108810637Y-138582759D01*
X108967680Y-138347727D01*
X109075853Y-138086574D01*
X109131000Y-137809335D01*
X109131000Y-137526665D01*
X109075853Y-137249426D01*
X108967680Y-136988273D01*
X108810637Y-136753241D01*
X108610759Y-136553363D01*
X108375727Y-136396320D01*
X108114574Y-136288147D01*
X107837335Y-136233000D01*
X107554665Y-136233000D01*
X107277426Y-136288147D01*
X107016273Y-136396320D01*
X106781241Y-136553363D01*
X106581363Y-136753241D01*
X106424320Y-136988273D01*
X106316147Y-137249426D01*
X106261000Y-137526665D01*
X85496000Y-137526665D01*
X85496000Y-132446665D01*
X106261000Y-132446665D01*
X106261000Y-132729335D01*
X106316147Y-133006574D01*
X106424320Y-133267727D01*
X106581363Y-133502759D01*
X106781241Y-133702637D01*
X107016273Y-133859680D01*
X107277426Y-133967853D01*
X107554665Y-134023000D01*
X107837335Y-134023000D01*
X108114574Y-133967853D01*
X108375727Y-133859680D01*
X108610759Y-133702637D01*
X108810637Y-133502759D01*
X108967680Y-133267727D01*
X109075853Y-133006574D01*
X109131000Y-132729335D01*
X109131000Y-132446665D01*
X139281000Y-132446665D01*
X139281000Y-132729335D01*
X139336147Y-133006574D01*
X139444320Y-133267727D01*
X139601363Y-133502759D01*
X139801241Y-133702637D01*
X140036273Y-133859680D01*
X140297426Y-133967853D01*
X140574665Y-134023000D01*
X140857335Y-134023000D01*
X141134574Y-133967853D01*
X141395727Y-133859680D01*
X141630759Y-133702637D01*
X141830637Y-133502759D01*
X141987680Y-133267727D01*
X142095853Y-133006574D01*
X142151000Y-132729335D01*
X142151000Y-132446665D01*
X142095853Y-132169426D01*
X141987680Y-131908273D01*
X141830637Y-131673241D01*
X141630759Y-131473363D01*
X141395727Y-131316320D01*
X141134574Y-131208147D01*
X140857335Y-131153000D01*
X140574665Y-131153000D01*
X140297426Y-131208147D01*
X140036273Y-131316320D01*
X139801241Y-131473363D01*
X139601363Y-131673241D01*
X139444320Y-131908273D01*
X139336147Y-132169426D01*
X139281000Y-132446665D01*
X109131000Y-132446665D01*
X109075853Y-132169426D01*
X108967680Y-131908273D01*
X108810637Y-131673241D01*
X108610759Y-131473363D01*
X108375727Y-131316320D01*
X108114574Y-131208147D01*
X107837335Y-131153000D01*
X107554665Y-131153000D01*
X107277426Y-131208147D01*
X107016273Y-131316320D01*
X106781241Y-131473363D01*
X106581363Y-131673241D01*
X106424320Y-131908273D01*
X106316147Y-132169426D01*
X106261000Y-132446665D01*
X85496000Y-132446665D01*
X85496000Y-105888000D01*
X87342928Y-105888000D01*
X87342928Y-108488000D01*
X87355188Y-108612482D01*
X87391498Y-108732180D01*
X87450463Y-108842494D01*
X87529815Y-108939185D01*
X87626506Y-109018537D01*
X87736820Y-109077502D01*
X87856518Y-109113812D01*
X87981000Y-109126072D01*
X88773335Y-109126072D01*
X88716581Y-109137361D01*
X88364434Y-109283225D01*
X88047509Y-109494987D01*
X87777987Y-109764509D01*
X87566225Y-110081434D01*
X87420361Y-110433581D01*
X87346000Y-110807419D01*
X87346000Y-111188581D01*
X87420361Y-111562419D01*
X87566225Y-111914566D01*
X87777987Y-112231491D01*
X88047509Y-112501013D01*
X88364434Y-112712775D01*
X88716581Y-112858639D01*
X88939599Y-112903000D01*
X88716581Y-112947361D01*
X88364434Y-113093225D01*
X88047509Y-113304987D01*
X87777987Y-113574509D01*
X87566225Y-113891434D01*
X87420361Y-114243581D01*
X87346000Y-114617419D01*
X87346000Y-114998581D01*
X87420361Y-115372419D01*
X87566225Y-115724566D01*
X87777987Y-116041491D01*
X88047509Y-116311013D01*
X88364434Y-116522775D01*
X88716581Y-116668639D01*
X88939599Y-116713000D01*
X88716581Y-116757361D01*
X88364434Y-116903225D01*
X88047509Y-117114987D01*
X87777987Y-117384509D01*
X87566225Y-117701434D01*
X87420361Y-118053581D01*
X87346000Y-118427419D01*
X87346000Y-118808581D01*
X87420361Y-119182419D01*
X87566225Y-119534566D01*
X87777987Y-119851491D01*
X88047509Y-120121013D01*
X88364434Y-120332775D01*
X88716581Y-120478639D01*
X88939599Y-120523000D01*
X88716581Y-120567361D01*
X88364434Y-120713225D01*
X88047509Y-120924987D01*
X87777987Y-121194509D01*
X87566225Y-121511434D01*
X87420361Y-121863581D01*
X87346000Y-122237419D01*
X87346000Y-122618581D01*
X87420361Y-122992419D01*
X87566225Y-123344566D01*
X87777987Y-123661491D01*
X88047509Y-123931013D01*
X88364434Y-124142775D01*
X88716581Y-124288639D01*
X89090419Y-124363000D01*
X89471581Y-124363000D01*
X89845419Y-124288639D01*
X90197566Y-124142775D01*
X90309474Y-124068000D01*
X112507928Y-124068000D01*
X112507928Y-125868000D01*
X112520188Y-125992482D01*
X112556498Y-126112180D01*
X112615463Y-126222494D01*
X112694815Y-126319185D01*
X112791506Y-126398537D01*
X112901820Y-126457502D01*
X113021518Y-126493812D01*
X113146000Y-126506072D01*
X114946000Y-126506072D01*
X115070482Y-126493812D01*
X115190180Y-126457502D01*
X115300494Y-126398537D01*
X115397185Y-126319185D01*
X115476537Y-126222494D01*
X115535502Y-126112180D01*
X115571812Y-125992482D01*
X115584072Y-125868000D01*
X115584072Y-124068000D01*
X132827928Y-124068000D01*
X132827928Y-125868000D01*
X132840188Y-125992482D01*
X132876498Y-126112180D01*
X132935463Y-126222494D01*
X133014815Y-126319185D01*
X133111506Y-126398537D01*
X133221820Y-126457502D01*
X133341518Y-126493812D01*
X133466000Y-126506072D01*
X135266000Y-126506072D01*
X135390482Y-126493812D01*
X135510180Y-126457502D01*
X135620494Y-126398537D01*
X135717185Y-126319185D01*
X135796537Y-126222494D01*
X135855502Y-126112180D01*
X135891812Y-125992482D01*
X135904072Y-125868000D01*
X135904072Y-124068000D01*
X135891812Y-123943518D01*
X135855502Y-123823820D01*
X135796537Y-123713506D01*
X135717185Y-123616815D01*
X135620494Y-123537463D01*
X135510180Y-123478498D01*
X135491873Y-123472944D01*
X135558312Y-123406505D01*
X135726299Y-123155095D01*
X135842011Y-122875743D01*
X135901000Y-122579184D01*
X135901000Y-122286665D01*
X139281000Y-122286665D01*
X139281000Y-122569335D01*
X139336147Y-122846574D01*
X139444320Y-123107727D01*
X139601363Y-123342759D01*
X139801241Y-123542637D01*
X140036273Y-123699680D01*
X140297426Y-123807853D01*
X140574665Y-123863000D01*
X140857335Y-123863000D01*
X141134574Y-123807853D01*
X141395727Y-123699680D01*
X141630759Y-123542637D01*
X141830637Y-123342759D01*
X141987680Y-123107727D01*
X142095853Y-122846574D01*
X142151000Y-122569335D01*
X142151000Y-122286665D01*
X142095853Y-122009426D01*
X141987680Y-121748273D01*
X141830637Y-121513241D01*
X141630759Y-121313363D01*
X141395727Y-121156320D01*
X141134574Y-121048147D01*
X140857335Y-120993000D01*
X140574665Y-120993000D01*
X140297426Y-121048147D01*
X140036273Y-121156320D01*
X139801241Y-121313363D01*
X139601363Y-121513241D01*
X139444320Y-121748273D01*
X139336147Y-122009426D01*
X139281000Y-122286665D01*
X135901000Y-122286665D01*
X135901000Y-122276816D01*
X135842011Y-121980257D01*
X135726299Y-121700905D01*
X135558312Y-121449495D01*
X135344505Y-121235688D01*
X135093095Y-121067701D01*
X134813743Y-120951989D01*
X134517184Y-120893000D01*
X134214816Y-120893000D01*
X133918257Y-120951989D01*
X133638905Y-121067701D01*
X133387495Y-121235688D01*
X133173688Y-121449495D01*
X133005701Y-121700905D01*
X132889989Y-121980257D01*
X132831000Y-122276816D01*
X132831000Y-122579184D01*
X132889989Y-122875743D01*
X133005701Y-123155095D01*
X133173688Y-123406505D01*
X133240127Y-123472944D01*
X133221820Y-123478498D01*
X133111506Y-123537463D01*
X133014815Y-123616815D01*
X132935463Y-123713506D01*
X132876498Y-123823820D01*
X132840188Y-123943518D01*
X132827928Y-124068000D01*
X115584072Y-124068000D01*
X115571812Y-123943518D01*
X115535502Y-123823820D01*
X115476537Y-123713506D01*
X115397185Y-123616815D01*
X115300494Y-123537463D01*
X115190180Y-123478498D01*
X115171873Y-123472944D01*
X115238312Y-123406505D01*
X115406299Y-123155095D01*
X115522011Y-122875743D01*
X115581000Y-122579184D01*
X115581000Y-122276816D01*
X115522011Y-121980257D01*
X115406299Y-121700905D01*
X115238312Y-121449495D01*
X115024505Y-121235688D01*
X114773095Y-121067701D01*
X114493743Y-120951989D01*
X114197184Y-120893000D01*
X113894816Y-120893000D01*
X113598257Y-120951989D01*
X113318905Y-121067701D01*
X113067495Y-121235688D01*
X112853688Y-121449495D01*
X112685701Y-121700905D01*
X112569989Y-121980257D01*
X112511000Y-122276816D01*
X112511000Y-122579184D01*
X112569989Y-122875743D01*
X112685701Y-123155095D01*
X112853688Y-123406505D01*
X112920127Y-123472944D01*
X112901820Y-123478498D01*
X112791506Y-123537463D01*
X112694815Y-123616815D01*
X112615463Y-123713506D01*
X112556498Y-123823820D01*
X112520188Y-123943518D01*
X112507928Y-124068000D01*
X90309474Y-124068000D01*
X90514491Y-123931013D01*
X90784013Y-123661491D01*
X90995775Y-123344566D01*
X91141639Y-122992419D01*
X91216000Y-122618581D01*
X91216000Y-122286665D01*
X106261000Y-122286665D01*
X106261000Y-122569335D01*
X106316147Y-122846574D01*
X106424320Y-123107727D01*
X106581363Y-123342759D01*
X106781241Y-123542637D01*
X107016273Y-123699680D01*
X107277426Y-123807853D01*
X107554665Y-123863000D01*
X107837335Y-123863000D01*
X108114574Y-123807853D01*
X108375727Y-123699680D01*
X108610759Y-123542637D01*
X108810637Y-123342759D01*
X108967680Y-123107727D01*
X109075853Y-122846574D01*
X109131000Y-122569335D01*
X109131000Y-122286665D01*
X109075853Y-122009426D01*
X108967680Y-121748273D01*
X108810637Y-121513241D01*
X108610759Y-121313363D01*
X108375727Y-121156320D01*
X108114574Y-121048147D01*
X107837335Y-120993000D01*
X107554665Y-120993000D01*
X107277426Y-121048147D01*
X107016273Y-121156320D01*
X106781241Y-121313363D01*
X106581363Y-121513241D01*
X106424320Y-121748273D01*
X106316147Y-122009426D01*
X106261000Y-122286665D01*
X91216000Y-122286665D01*
X91216000Y-122237419D01*
X91141639Y-121863581D01*
X90995775Y-121511434D01*
X90784013Y-121194509D01*
X90514491Y-120924987D01*
X90197566Y-120713225D01*
X89845419Y-120567361D01*
X89622401Y-120523000D01*
X89845419Y-120478639D01*
X90197566Y-120332775D01*
X90514491Y-120121013D01*
X90784013Y-119851491D01*
X90995775Y-119534566D01*
X91141639Y-119182419D01*
X91216000Y-118808581D01*
X91216000Y-118427419D01*
X91141639Y-118053581D01*
X90995775Y-117701434D01*
X90784013Y-117384509D01*
X90606169Y-117206665D01*
X106261000Y-117206665D01*
X106261000Y-117489335D01*
X106316147Y-117766574D01*
X106424320Y-118027727D01*
X106581363Y-118262759D01*
X106781241Y-118462637D01*
X107016273Y-118619680D01*
X107277426Y-118727853D01*
X107554665Y-118783000D01*
X107837335Y-118783000D01*
X108114574Y-118727853D01*
X108375727Y-118619680D01*
X108610759Y-118462637D01*
X108810637Y-118262759D01*
X108967680Y-118027727D01*
X109075853Y-117766574D01*
X109131000Y-117489335D01*
X109131000Y-117206665D01*
X139281000Y-117206665D01*
X139281000Y-117489335D01*
X139336147Y-117766574D01*
X139444320Y-118027727D01*
X139601363Y-118262759D01*
X139801241Y-118462637D01*
X140036273Y-118619680D01*
X140297426Y-118727853D01*
X140574665Y-118783000D01*
X140857335Y-118783000D01*
X141134574Y-118727853D01*
X141395727Y-118619680D01*
X141630759Y-118462637D01*
X141830637Y-118262759D01*
X141987680Y-118027727D01*
X142095853Y-117766574D01*
X142151000Y-117489335D01*
X142151000Y-117206665D01*
X142095853Y-116929426D01*
X141987680Y-116668273D01*
X141830637Y-116433241D01*
X141630759Y-116233363D01*
X141395727Y-116076320D01*
X141134574Y-115968147D01*
X140857335Y-115913000D01*
X140574665Y-115913000D01*
X140297426Y-115968147D01*
X140036273Y-116076320D01*
X139801241Y-116233363D01*
X139601363Y-116433241D01*
X139444320Y-116668273D01*
X139336147Y-116929426D01*
X139281000Y-117206665D01*
X109131000Y-117206665D01*
X109075853Y-116929426D01*
X108967680Y-116668273D01*
X108810637Y-116433241D01*
X108610759Y-116233363D01*
X108375727Y-116076320D01*
X108114574Y-115968147D01*
X107837335Y-115913000D01*
X107554665Y-115913000D01*
X107277426Y-115968147D01*
X107016273Y-116076320D01*
X106781241Y-116233363D01*
X106581363Y-116433241D01*
X106424320Y-116668273D01*
X106316147Y-116929426D01*
X106261000Y-117206665D01*
X90606169Y-117206665D01*
X90514491Y-117114987D01*
X90197566Y-116903225D01*
X89845419Y-116757361D01*
X89622401Y-116713000D01*
X89845419Y-116668639D01*
X90197566Y-116522775D01*
X90514491Y-116311013D01*
X90784013Y-116041491D01*
X90995775Y-115724566D01*
X91141639Y-115372419D01*
X91216000Y-114998581D01*
X91216000Y-114617419D01*
X91141639Y-114243581D01*
X90995775Y-113891434D01*
X90784013Y-113574509D01*
X90514491Y-113304987D01*
X90197566Y-113093225D01*
X89845419Y-112947361D01*
X89622401Y-112903000D01*
X89845419Y-112858639D01*
X90197566Y-112712775D01*
X90514491Y-112501013D01*
X90784013Y-112231491D01*
X90995775Y-111914566D01*
X91141639Y-111562419D01*
X91216000Y-111188581D01*
X91216000Y-110807419D01*
X91141639Y-110433581D01*
X90995775Y-110081434D01*
X90784013Y-109764509D01*
X90514491Y-109494987D01*
X90197566Y-109283225D01*
X89845419Y-109137361D01*
X89788665Y-109126072D01*
X90581000Y-109126072D01*
X90705482Y-109113812D01*
X90825180Y-109077502D01*
X90935494Y-109018537D01*
X91032185Y-108939185D01*
X91111537Y-108842494D01*
X91119284Y-108828000D01*
X112507928Y-108828000D01*
X112507928Y-110628000D01*
X112520188Y-110752482D01*
X112556498Y-110872180D01*
X112615463Y-110982494D01*
X112694815Y-111079185D01*
X112791506Y-111158537D01*
X112901820Y-111217502D01*
X113021518Y-111253812D01*
X113146000Y-111266072D01*
X114946000Y-111266072D01*
X115070482Y-111253812D01*
X115190180Y-111217502D01*
X115300494Y-111158537D01*
X115397185Y-111079185D01*
X115476537Y-110982494D01*
X115535502Y-110872180D01*
X115571812Y-110752482D01*
X115584072Y-110628000D01*
X115584072Y-108828000D01*
X132827928Y-108828000D01*
X132827928Y-110628000D01*
X132840188Y-110752482D01*
X132876498Y-110872180D01*
X132935463Y-110982494D01*
X133014815Y-111079185D01*
X133111506Y-111158537D01*
X133221820Y-111217502D01*
X133341518Y-111253812D01*
X133466000Y-111266072D01*
X135266000Y-111266072D01*
X135390482Y-111253812D01*
X135510180Y-111217502D01*
X135620494Y-111158537D01*
X135717185Y-111079185D01*
X135796537Y-110982494D01*
X135855502Y-110872180D01*
X135891812Y-110752482D01*
X135904072Y-110628000D01*
X135904072Y-108828000D01*
X135891812Y-108703518D01*
X135855502Y-108583820D01*
X135796537Y-108473506D01*
X135717185Y-108376815D01*
X135620494Y-108297463D01*
X135510180Y-108238498D01*
X135491873Y-108232944D01*
X135558312Y-108166505D01*
X135726299Y-107915095D01*
X135842011Y-107635743D01*
X135901000Y-107339184D01*
X135901000Y-107046665D01*
X139281000Y-107046665D01*
X139281000Y-107329335D01*
X139336147Y-107606574D01*
X139444320Y-107867727D01*
X139601363Y-108102759D01*
X139801241Y-108302637D01*
X140036273Y-108459680D01*
X140297426Y-108567853D01*
X140574665Y-108623000D01*
X140857335Y-108623000D01*
X141134574Y-108567853D01*
X141395727Y-108459680D01*
X141630759Y-108302637D01*
X141830637Y-108102759D01*
X141987680Y-107867727D01*
X142095853Y-107606574D01*
X142151000Y-107329335D01*
X142151000Y-107046665D01*
X142095853Y-106769426D01*
X141987680Y-106508273D01*
X141830637Y-106273241D01*
X141630759Y-106073363D01*
X141395727Y-105916320D01*
X141134574Y-105808147D01*
X140857335Y-105753000D01*
X140574665Y-105753000D01*
X140297426Y-105808147D01*
X140036273Y-105916320D01*
X139801241Y-106073363D01*
X139601363Y-106273241D01*
X139444320Y-106508273D01*
X139336147Y-106769426D01*
X139281000Y-107046665D01*
X135901000Y-107046665D01*
X135901000Y-107036816D01*
X135842011Y-106740257D01*
X135726299Y-106460905D01*
X135558312Y-106209495D01*
X135344505Y-105995688D01*
X135093095Y-105827701D01*
X134813743Y-105711989D01*
X134517184Y-105653000D01*
X134214816Y-105653000D01*
X133918257Y-105711989D01*
X133638905Y-105827701D01*
X133387495Y-105995688D01*
X133173688Y-106209495D01*
X133005701Y-106460905D01*
X132889989Y-106740257D01*
X132831000Y-107036816D01*
X132831000Y-107339184D01*
X132889989Y-107635743D01*
X133005701Y-107915095D01*
X133173688Y-108166505D01*
X133240127Y-108232944D01*
X133221820Y-108238498D01*
X133111506Y-108297463D01*
X133014815Y-108376815D01*
X132935463Y-108473506D01*
X132876498Y-108583820D01*
X132840188Y-108703518D01*
X132827928Y-108828000D01*
X115584072Y-108828000D01*
X115571812Y-108703518D01*
X115535502Y-108583820D01*
X115476537Y-108473506D01*
X115397185Y-108376815D01*
X115300494Y-108297463D01*
X115190180Y-108238498D01*
X115171873Y-108232944D01*
X115238312Y-108166505D01*
X115406299Y-107915095D01*
X115522011Y-107635743D01*
X115581000Y-107339184D01*
X115581000Y-107036816D01*
X115522011Y-106740257D01*
X115406299Y-106460905D01*
X115238312Y-106209495D01*
X115024505Y-105995688D01*
X114773095Y-105827701D01*
X114493743Y-105711989D01*
X114197184Y-105653000D01*
X113894816Y-105653000D01*
X113598257Y-105711989D01*
X113318905Y-105827701D01*
X113067495Y-105995688D01*
X112853688Y-106209495D01*
X112685701Y-106460905D01*
X112569989Y-106740257D01*
X112511000Y-107036816D01*
X112511000Y-107339184D01*
X112569989Y-107635743D01*
X112685701Y-107915095D01*
X112853688Y-108166505D01*
X112920127Y-108232944D01*
X112901820Y-108238498D01*
X112791506Y-108297463D01*
X112694815Y-108376815D01*
X112615463Y-108473506D01*
X112556498Y-108583820D01*
X112520188Y-108703518D01*
X112507928Y-108828000D01*
X91119284Y-108828000D01*
X91170502Y-108732180D01*
X91206812Y-108612482D01*
X91219072Y-108488000D01*
X91219072Y-107046665D01*
X106261000Y-107046665D01*
X106261000Y-107329335D01*
X106316147Y-107606574D01*
X106424320Y-107867727D01*
X106581363Y-108102759D01*
X106781241Y-108302637D01*
X107016273Y-108459680D01*
X107277426Y-108567853D01*
X107554665Y-108623000D01*
X107837335Y-108623000D01*
X108114574Y-108567853D01*
X108375727Y-108459680D01*
X108610759Y-108302637D01*
X108810637Y-108102759D01*
X108967680Y-107867727D01*
X109075853Y-107606574D01*
X109131000Y-107329335D01*
X109131000Y-107046665D01*
X109075853Y-106769426D01*
X108967680Y-106508273D01*
X108810637Y-106273241D01*
X108610759Y-106073363D01*
X108375727Y-105916320D01*
X108114574Y-105808147D01*
X107837335Y-105753000D01*
X107554665Y-105753000D01*
X107277426Y-105808147D01*
X107016273Y-105916320D01*
X106781241Y-106073363D01*
X106581363Y-106273241D01*
X106424320Y-106508273D01*
X106316147Y-106769426D01*
X106261000Y-107046665D01*
X91219072Y-107046665D01*
X91219072Y-105888000D01*
X91206812Y-105763518D01*
X91170502Y-105643820D01*
X91111537Y-105533506D01*
X91032185Y-105436815D01*
X90935494Y-105357463D01*
X90825180Y-105298498D01*
X90705482Y-105262188D01*
X90581000Y-105249928D01*
X87981000Y-105249928D01*
X87856518Y-105262188D01*
X87736820Y-105298498D01*
X87626506Y-105357463D01*
X87529815Y-105436815D01*
X87450463Y-105533506D01*
X87391498Y-105643820D01*
X87355188Y-105763518D01*
X87342928Y-105888000D01*
X85496000Y-105888000D01*
X85496000Y-97633000D01*
X87342928Y-97633000D01*
X87342928Y-100233000D01*
X87355188Y-100357482D01*
X87391498Y-100477180D01*
X87450463Y-100587494D01*
X87529815Y-100684185D01*
X87626506Y-100763537D01*
X87736820Y-100822502D01*
X87856518Y-100858812D01*
X87981000Y-100871072D01*
X88773335Y-100871072D01*
X88716581Y-100882361D01*
X88364434Y-101028225D01*
X88047509Y-101239987D01*
X87777987Y-101509509D01*
X87566225Y-101826434D01*
X87420361Y-102178581D01*
X87346000Y-102552419D01*
X87346000Y-102933581D01*
X87420361Y-103307419D01*
X87566225Y-103659566D01*
X87777987Y-103976491D01*
X88047509Y-104246013D01*
X88364434Y-104457775D01*
X88716581Y-104603639D01*
X89090419Y-104678000D01*
X89471581Y-104678000D01*
X89845419Y-104603639D01*
X90197566Y-104457775D01*
X90514491Y-104246013D01*
X90784013Y-103976491D01*
X90995775Y-103659566D01*
X91141639Y-103307419D01*
X91216000Y-102933581D01*
X91216000Y-102552419D01*
X91141639Y-102178581D01*
X91053861Y-101966665D01*
X106261000Y-101966665D01*
X106261000Y-102249335D01*
X106316147Y-102526574D01*
X106424320Y-102787727D01*
X106581363Y-103022759D01*
X106781241Y-103222637D01*
X107016273Y-103379680D01*
X107277426Y-103487853D01*
X107554665Y-103543000D01*
X107837335Y-103543000D01*
X108114574Y-103487853D01*
X108375727Y-103379680D01*
X108610759Y-103222637D01*
X108810637Y-103022759D01*
X108967680Y-102787727D01*
X109075853Y-102526574D01*
X109131000Y-102249335D01*
X109131000Y-101966665D01*
X139281000Y-101966665D01*
X139281000Y-102249335D01*
X139336147Y-102526574D01*
X139444320Y-102787727D01*
X139601363Y-103022759D01*
X139801241Y-103222637D01*
X140036273Y-103379680D01*
X140297426Y-103487853D01*
X140574665Y-103543000D01*
X140857335Y-103543000D01*
X141134574Y-103487853D01*
X141395727Y-103379680D01*
X141630759Y-103222637D01*
X141830637Y-103022759D01*
X141987680Y-102787727D01*
X142095853Y-102526574D01*
X142151000Y-102249335D01*
X142151000Y-101966665D01*
X142095853Y-101689426D01*
X141987680Y-101428273D01*
X141830637Y-101193241D01*
X141630759Y-100993363D01*
X141395727Y-100836320D01*
X141134574Y-100728147D01*
X140857335Y-100673000D01*
X140574665Y-100673000D01*
X140297426Y-100728147D01*
X140036273Y-100836320D01*
X139801241Y-100993363D01*
X139601363Y-101193241D01*
X139444320Y-101428273D01*
X139336147Y-101689426D01*
X139281000Y-101966665D01*
X109131000Y-101966665D01*
X109075853Y-101689426D01*
X108967680Y-101428273D01*
X108810637Y-101193241D01*
X108610759Y-100993363D01*
X108375727Y-100836320D01*
X108114574Y-100728147D01*
X107837335Y-100673000D01*
X107554665Y-100673000D01*
X107277426Y-100728147D01*
X107016273Y-100836320D01*
X106781241Y-100993363D01*
X106581363Y-101193241D01*
X106424320Y-101428273D01*
X106316147Y-101689426D01*
X106261000Y-101966665D01*
X91053861Y-101966665D01*
X90995775Y-101826434D01*
X90784013Y-101509509D01*
X90514491Y-101239987D01*
X90197566Y-101028225D01*
X89845419Y-100882361D01*
X89788665Y-100871072D01*
X90581000Y-100871072D01*
X90705482Y-100858812D01*
X90825180Y-100822502D01*
X90935494Y-100763537D01*
X91032185Y-100684185D01*
X91111537Y-100587494D01*
X91170502Y-100477180D01*
X91206812Y-100357482D01*
X91219072Y-100233000D01*
X91219072Y-97633000D01*
X91206812Y-97508518D01*
X91170502Y-97388820D01*
X91111537Y-97278506D01*
X91032185Y-97181815D01*
X90935494Y-97102463D01*
X90825180Y-97043498D01*
X90705482Y-97007188D01*
X90581000Y-96994928D01*
X87981000Y-96994928D01*
X87856518Y-97007188D01*
X87736820Y-97043498D01*
X87626506Y-97102463D01*
X87529815Y-97181815D01*
X87450463Y-97278506D01*
X87391498Y-97388820D01*
X87355188Y-97508518D01*
X87342928Y-97633000D01*
X85496000Y-97633000D01*
X85496000Y-77948000D01*
X87342928Y-77948000D01*
X87342928Y-80548000D01*
X87355188Y-80672482D01*
X87391498Y-80792180D01*
X87450463Y-80902494D01*
X87529815Y-80999185D01*
X87626506Y-81078537D01*
X87736820Y-81137502D01*
X87856518Y-81173812D01*
X87981000Y-81186072D01*
X88773335Y-81186072D01*
X88716581Y-81197361D01*
X88364434Y-81343225D01*
X88047509Y-81554987D01*
X87777987Y-81824509D01*
X87566225Y-82141434D01*
X87420361Y-82493581D01*
X87346000Y-82867419D01*
X87346000Y-83248581D01*
X87420361Y-83622419D01*
X87566225Y-83974566D01*
X87777987Y-84291491D01*
X88047509Y-84561013D01*
X88364434Y-84772775D01*
X88716581Y-84918639D01*
X88939599Y-84963000D01*
X88716581Y-85007361D01*
X88364434Y-85153225D01*
X88047509Y-85364987D01*
X87777987Y-85634509D01*
X87566225Y-85951434D01*
X87420361Y-86303581D01*
X87346000Y-86677419D01*
X87346000Y-87058581D01*
X87420361Y-87432419D01*
X87566225Y-87784566D01*
X87777987Y-88101491D01*
X88047509Y-88371013D01*
X88364434Y-88582775D01*
X88716581Y-88728639D01*
X88939599Y-88773000D01*
X88716581Y-88817361D01*
X88364434Y-88963225D01*
X88047509Y-89174987D01*
X87777987Y-89444509D01*
X87566225Y-89761434D01*
X87420361Y-90113581D01*
X87346000Y-90487419D01*
X87346000Y-90868581D01*
X87420361Y-91242419D01*
X87566225Y-91594566D01*
X87777987Y-91911491D01*
X88047509Y-92181013D01*
X88364434Y-92392775D01*
X88716581Y-92538639D01*
X88939599Y-92583000D01*
X88716581Y-92627361D01*
X88364434Y-92773225D01*
X88047509Y-92984987D01*
X87777987Y-93254509D01*
X87566225Y-93571434D01*
X87420361Y-93923581D01*
X87346000Y-94297419D01*
X87346000Y-94678581D01*
X87420361Y-95052419D01*
X87566225Y-95404566D01*
X87777987Y-95721491D01*
X88047509Y-95991013D01*
X88364434Y-96202775D01*
X88716581Y-96348639D01*
X89090419Y-96423000D01*
X89471581Y-96423000D01*
X89845419Y-96348639D01*
X90197566Y-96202775D01*
X90514491Y-95991013D01*
X90784013Y-95721491D01*
X90995775Y-95404566D01*
X91141639Y-95052419D01*
X91216000Y-94678581D01*
X91216000Y-94297419D01*
X91141639Y-93923581D01*
X91002637Y-93588000D01*
X112507928Y-93588000D01*
X112507928Y-95388000D01*
X112520188Y-95512482D01*
X112556498Y-95632180D01*
X112615463Y-95742494D01*
X112694815Y-95839185D01*
X112791506Y-95918537D01*
X112901820Y-95977502D01*
X113021518Y-96013812D01*
X113146000Y-96026072D01*
X114946000Y-96026072D01*
X115070482Y-96013812D01*
X115190180Y-95977502D01*
X115300494Y-95918537D01*
X115397185Y-95839185D01*
X115476537Y-95742494D01*
X115535502Y-95632180D01*
X115571812Y-95512482D01*
X115584072Y-95388000D01*
X115584072Y-93588000D01*
X132827928Y-93588000D01*
X132827928Y-95388000D01*
X132840188Y-95512482D01*
X132876498Y-95632180D01*
X132935463Y-95742494D01*
X133014815Y-95839185D01*
X133111506Y-95918537D01*
X133221820Y-95977502D01*
X133341518Y-96013812D01*
X133466000Y-96026072D01*
X135266000Y-96026072D01*
X135390482Y-96013812D01*
X135510180Y-95977502D01*
X135620494Y-95918537D01*
X135717185Y-95839185D01*
X135796537Y-95742494D01*
X135855502Y-95632180D01*
X135891812Y-95512482D01*
X135904072Y-95388000D01*
X135904072Y-93588000D01*
X135891812Y-93463518D01*
X135855502Y-93343820D01*
X135796537Y-93233506D01*
X135717185Y-93136815D01*
X135620494Y-93057463D01*
X135510180Y-92998498D01*
X135491873Y-92992944D01*
X135558312Y-92926505D01*
X135726299Y-92675095D01*
X135842011Y-92395743D01*
X135901000Y-92099184D01*
X135901000Y-91806665D01*
X139281000Y-91806665D01*
X139281000Y-92089335D01*
X139336147Y-92366574D01*
X139444320Y-92627727D01*
X139601363Y-92862759D01*
X139801241Y-93062637D01*
X140036273Y-93219680D01*
X140297426Y-93327853D01*
X140574665Y-93383000D01*
X140857335Y-93383000D01*
X141134574Y-93327853D01*
X141395727Y-93219680D01*
X141630759Y-93062637D01*
X141830637Y-92862759D01*
X141987680Y-92627727D01*
X142095853Y-92366574D01*
X142151000Y-92089335D01*
X142151000Y-91806665D01*
X142095853Y-91529426D01*
X141987680Y-91268273D01*
X141830637Y-91033241D01*
X141630759Y-90833363D01*
X141395727Y-90676320D01*
X141134574Y-90568147D01*
X140857335Y-90513000D01*
X140574665Y-90513000D01*
X140297426Y-90568147D01*
X140036273Y-90676320D01*
X139801241Y-90833363D01*
X139601363Y-91033241D01*
X139444320Y-91268273D01*
X139336147Y-91529426D01*
X139281000Y-91806665D01*
X135901000Y-91806665D01*
X135901000Y-91796816D01*
X135842011Y-91500257D01*
X135726299Y-91220905D01*
X135558312Y-90969495D01*
X135344505Y-90755688D01*
X135093095Y-90587701D01*
X134813743Y-90471989D01*
X134517184Y-90413000D01*
X134214816Y-90413000D01*
X133918257Y-90471989D01*
X133638905Y-90587701D01*
X133387495Y-90755688D01*
X133173688Y-90969495D01*
X133005701Y-91220905D01*
X132889989Y-91500257D01*
X132831000Y-91796816D01*
X132831000Y-92099184D01*
X132889989Y-92395743D01*
X133005701Y-92675095D01*
X133173688Y-92926505D01*
X133240127Y-92992944D01*
X133221820Y-92998498D01*
X133111506Y-93057463D01*
X133014815Y-93136815D01*
X132935463Y-93233506D01*
X132876498Y-93343820D01*
X132840188Y-93463518D01*
X132827928Y-93588000D01*
X115584072Y-93588000D01*
X115571812Y-93463518D01*
X115535502Y-93343820D01*
X115476537Y-93233506D01*
X115397185Y-93136815D01*
X115300494Y-93057463D01*
X115190180Y-92998498D01*
X115171873Y-92992944D01*
X115238312Y-92926505D01*
X115406299Y-92675095D01*
X115522011Y-92395743D01*
X115581000Y-92099184D01*
X115581000Y-91796816D01*
X115522011Y-91500257D01*
X115406299Y-91220905D01*
X115238312Y-90969495D01*
X115024505Y-90755688D01*
X114773095Y-90587701D01*
X114493743Y-90471989D01*
X114197184Y-90413000D01*
X113894816Y-90413000D01*
X113598257Y-90471989D01*
X113318905Y-90587701D01*
X113067495Y-90755688D01*
X112853688Y-90969495D01*
X112685701Y-91220905D01*
X112569989Y-91500257D01*
X112511000Y-91796816D01*
X112511000Y-92099184D01*
X112569989Y-92395743D01*
X112685701Y-92675095D01*
X112853688Y-92926505D01*
X112920127Y-92992944D01*
X112901820Y-92998498D01*
X112791506Y-93057463D01*
X112694815Y-93136815D01*
X112615463Y-93233506D01*
X112556498Y-93343820D01*
X112520188Y-93463518D01*
X112507928Y-93588000D01*
X91002637Y-93588000D01*
X90995775Y-93571434D01*
X90784013Y-93254509D01*
X90514491Y-92984987D01*
X90197566Y-92773225D01*
X89845419Y-92627361D01*
X89622401Y-92583000D01*
X89845419Y-92538639D01*
X90197566Y-92392775D01*
X90514491Y-92181013D01*
X90784013Y-91911491D01*
X90854055Y-91806665D01*
X106261000Y-91806665D01*
X106261000Y-92089335D01*
X106316147Y-92366574D01*
X106424320Y-92627727D01*
X106581363Y-92862759D01*
X106781241Y-93062637D01*
X107016273Y-93219680D01*
X107277426Y-93327853D01*
X107554665Y-93383000D01*
X107837335Y-93383000D01*
X108114574Y-93327853D01*
X108375727Y-93219680D01*
X108610759Y-93062637D01*
X108810637Y-92862759D01*
X108967680Y-92627727D01*
X109075853Y-92366574D01*
X109131000Y-92089335D01*
X109131000Y-91806665D01*
X109075853Y-91529426D01*
X108967680Y-91268273D01*
X108810637Y-91033241D01*
X108610759Y-90833363D01*
X108375727Y-90676320D01*
X108114574Y-90568147D01*
X107837335Y-90513000D01*
X107554665Y-90513000D01*
X107277426Y-90568147D01*
X107016273Y-90676320D01*
X106781241Y-90833363D01*
X106581363Y-91033241D01*
X106424320Y-91268273D01*
X106316147Y-91529426D01*
X106261000Y-91806665D01*
X90854055Y-91806665D01*
X90995775Y-91594566D01*
X91141639Y-91242419D01*
X91216000Y-90868581D01*
X91216000Y-90487419D01*
X91141639Y-90113581D01*
X90995775Y-89761434D01*
X90784013Y-89444509D01*
X90514491Y-89174987D01*
X90197566Y-88963225D01*
X89845419Y-88817361D01*
X89622401Y-88773000D01*
X89845419Y-88728639D01*
X90197566Y-88582775D01*
X90514491Y-88371013D01*
X90784013Y-88101491D01*
X90995775Y-87784566D01*
X91141639Y-87432419D01*
X91216000Y-87058581D01*
X91216000Y-86726665D01*
X106261000Y-86726665D01*
X106261000Y-87009335D01*
X106316147Y-87286574D01*
X106424320Y-87547727D01*
X106581363Y-87782759D01*
X106781241Y-87982637D01*
X107016273Y-88139680D01*
X107277426Y-88247853D01*
X107554665Y-88303000D01*
X107837335Y-88303000D01*
X108114574Y-88247853D01*
X108375727Y-88139680D01*
X108610759Y-87982637D01*
X108810637Y-87782759D01*
X108967680Y-87547727D01*
X109075853Y-87286574D01*
X109131000Y-87009335D01*
X109131000Y-86726665D01*
X139281000Y-86726665D01*
X139281000Y-87009335D01*
X139336147Y-87286574D01*
X139444320Y-87547727D01*
X139601363Y-87782759D01*
X139801241Y-87982637D01*
X140036273Y-88139680D01*
X140297426Y-88247853D01*
X140574665Y-88303000D01*
X140857335Y-88303000D01*
X141134574Y-88247853D01*
X141395727Y-88139680D01*
X141630759Y-87982637D01*
X141830637Y-87782759D01*
X141987680Y-87547727D01*
X142095853Y-87286574D01*
X142151000Y-87009335D01*
X142151000Y-86726665D01*
X142095853Y-86449426D01*
X141987680Y-86188273D01*
X141830637Y-85953241D01*
X141630759Y-85753363D01*
X141395727Y-85596320D01*
X141134574Y-85488147D01*
X140857335Y-85433000D01*
X140574665Y-85433000D01*
X140297426Y-85488147D01*
X140036273Y-85596320D01*
X139801241Y-85753363D01*
X139601363Y-85953241D01*
X139444320Y-86188273D01*
X139336147Y-86449426D01*
X139281000Y-86726665D01*
X109131000Y-86726665D01*
X109075853Y-86449426D01*
X108967680Y-86188273D01*
X108810637Y-85953241D01*
X108610759Y-85753363D01*
X108375727Y-85596320D01*
X108114574Y-85488147D01*
X107837335Y-85433000D01*
X107554665Y-85433000D01*
X107277426Y-85488147D01*
X107016273Y-85596320D01*
X106781241Y-85753363D01*
X106581363Y-85953241D01*
X106424320Y-86188273D01*
X106316147Y-86449426D01*
X106261000Y-86726665D01*
X91216000Y-86726665D01*
X91216000Y-86677419D01*
X91141639Y-86303581D01*
X90995775Y-85951434D01*
X90784013Y-85634509D01*
X90514491Y-85364987D01*
X90197566Y-85153225D01*
X89845419Y-85007361D01*
X89622401Y-84963000D01*
X89845419Y-84918639D01*
X90197566Y-84772775D01*
X90514491Y-84561013D01*
X90784013Y-84291491D01*
X90995775Y-83974566D01*
X91141639Y-83622419D01*
X91216000Y-83248581D01*
X91216000Y-82867419D01*
X91141639Y-82493581D01*
X90995775Y-82141434D01*
X90784013Y-81824509D01*
X90514491Y-81554987D01*
X90197566Y-81343225D01*
X89845419Y-81197361D01*
X89788665Y-81186072D01*
X90581000Y-81186072D01*
X90705482Y-81173812D01*
X90825180Y-81137502D01*
X90935494Y-81078537D01*
X91032185Y-80999185D01*
X91111537Y-80902494D01*
X91170502Y-80792180D01*
X91206812Y-80672482D01*
X91219072Y-80548000D01*
X91219072Y-78348000D01*
X112507928Y-78348000D01*
X112507928Y-80148000D01*
X112520188Y-80272482D01*
X112556498Y-80392180D01*
X112615463Y-80502494D01*
X112694815Y-80599185D01*
X112791506Y-80678537D01*
X112901820Y-80737502D01*
X113021518Y-80773812D01*
X113146000Y-80786072D01*
X114946000Y-80786072D01*
X115070482Y-80773812D01*
X115190180Y-80737502D01*
X115300494Y-80678537D01*
X115397185Y-80599185D01*
X115476537Y-80502494D01*
X115535502Y-80392180D01*
X115571812Y-80272482D01*
X115584072Y-80148000D01*
X115584072Y-78348000D01*
X132827928Y-78348000D01*
X132827928Y-80148000D01*
X132840188Y-80272482D01*
X132876498Y-80392180D01*
X132935463Y-80502494D01*
X133014815Y-80599185D01*
X133111506Y-80678537D01*
X133221820Y-80737502D01*
X133341518Y-80773812D01*
X133466000Y-80786072D01*
X135266000Y-80786072D01*
X135390482Y-80773812D01*
X135510180Y-80737502D01*
X135620494Y-80678537D01*
X135717185Y-80599185D01*
X135796537Y-80502494D01*
X135855502Y-80392180D01*
X135891812Y-80272482D01*
X135904072Y-80148000D01*
X135904072Y-78348000D01*
X135891812Y-78223518D01*
X135855502Y-78103820D01*
X135796537Y-77993506D01*
X135717185Y-77896815D01*
X135620494Y-77817463D01*
X135510180Y-77758498D01*
X135491873Y-77752944D01*
X135558312Y-77686505D01*
X135726299Y-77435095D01*
X135842011Y-77155743D01*
X135901000Y-76859184D01*
X135901000Y-76566665D01*
X139281000Y-76566665D01*
X139281000Y-76849335D01*
X139336147Y-77126574D01*
X139444320Y-77387727D01*
X139601363Y-77622759D01*
X139801241Y-77822637D01*
X140036273Y-77979680D01*
X140297426Y-78087853D01*
X140574665Y-78143000D01*
X140857335Y-78143000D01*
X141134574Y-78087853D01*
X141395727Y-77979680D01*
X141630759Y-77822637D01*
X141830637Y-77622759D01*
X141987680Y-77387727D01*
X142095853Y-77126574D01*
X142151000Y-76849335D01*
X142151000Y-76566665D01*
X142095853Y-76289426D01*
X141987680Y-76028273D01*
X141830637Y-75793241D01*
X141630759Y-75593363D01*
X141395727Y-75436320D01*
X141134574Y-75328147D01*
X140857335Y-75273000D01*
X140574665Y-75273000D01*
X140297426Y-75328147D01*
X140036273Y-75436320D01*
X139801241Y-75593363D01*
X139601363Y-75793241D01*
X139444320Y-76028273D01*
X139336147Y-76289426D01*
X139281000Y-76566665D01*
X135901000Y-76566665D01*
X135901000Y-76556816D01*
X135842011Y-76260257D01*
X135726299Y-75980905D01*
X135558312Y-75729495D01*
X135344505Y-75515688D01*
X135093095Y-75347701D01*
X134813743Y-75231989D01*
X134517184Y-75173000D01*
X134214816Y-75173000D01*
X133918257Y-75231989D01*
X133638905Y-75347701D01*
X133387495Y-75515688D01*
X133173688Y-75729495D01*
X133005701Y-75980905D01*
X132889989Y-76260257D01*
X132831000Y-76556816D01*
X132831000Y-76859184D01*
X132889989Y-77155743D01*
X133005701Y-77435095D01*
X133173688Y-77686505D01*
X133240127Y-77752944D01*
X133221820Y-77758498D01*
X133111506Y-77817463D01*
X133014815Y-77896815D01*
X132935463Y-77993506D01*
X132876498Y-78103820D01*
X132840188Y-78223518D01*
X132827928Y-78348000D01*
X115584072Y-78348000D01*
X115571812Y-78223518D01*
X115535502Y-78103820D01*
X115476537Y-77993506D01*
X115397185Y-77896815D01*
X115300494Y-77817463D01*
X115190180Y-77758498D01*
X115171873Y-77752944D01*
X115238312Y-77686505D01*
X115406299Y-77435095D01*
X115522011Y-77155743D01*
X115581000Y-76859184D01*
X115581000Y-76556816D01*
X115522011Y-76260257D01*
X115406299Y-75980905D01*
X115238312Y-75729495D01*
X115024505Y-75515688D01*
X114773095Y-75347701D01*
X114493743Y-75231989D01*
X114197184Y-75173000D01*
X113894816Y-75173000D01*
X113598257Y-75231989D01*
X113318905Y-75347701D01*
X113067495Y-75515688D01*
X112853688Y-75729495D01*
X112685701Y-75980905D01*
X112569989Y-76260257D01*
X112511000Y-76556816D01*
X112511000Y-76859184D01*
X112569989Y-77155743D01*
X112685701Y-77435095D01*
X112853688Y-77686505D01*
X112920127Y-77752944D01*
X112901820Y-77758498D01*
X112791506Y-77817463D01*
X112694815Y-77896815D01*
X112615463Y-77993506D01*
X112556498Y-78103820D01*
X112520188Y-78223518D01*
X112507928Y-78348000D01*
X91219072Y-78348000D01*
X91219072Y-77948000D01*
X91206812Y-77823518D01*
X91170502Y-77703820D01*
X91111537Y-77593506D01*
X91032185Y-77496815D01*
X90935494Y-77417463D01*
X90825180Y-77358498D01*
X90705482Y-77322188D01*
X90581000Y-77309928D01*
X87981000Y-77309928D01*
X87856518Y-77322188D01*
X87736820Y-77358498D01*
X87626506Y-77417463D01*
X87529815Y-77496815D01*
X87450463Y-77593506D01*
X87391498Y-77703820D01*
X87355188Y-77823518D01*
X87342928Y-77948000D01*
X85496000Y-77948000D01*
X85496000Y-69693000D01*
X87342928Y-69693000D01*
X87342928Y-72293000D01*
X87355188Y-72417482D01*
X87391498Y-72537180D01*
X87450463Y-72647494D01*
X87529815Y-72744185D01*
X87626506Y-72823537D01*
X87736820Y-72882502D01*
X87856518Y-72918812D01*
X87981000Y-72931072D01*
X88773335Y-72931072D01*
X88716581Y-72942361D01*
X88364434Y-73088225D01*
X88047509Y-73299987D01*
X87777987Y-73569509D01*
X87566225Y-73886434D01*
X87420361Y-74238581D01*
X87346000Y-74612419D01*
X87346000Y-74993581D01*
X87420361Y-75367419D01*
X87566225Y-75719566D01*
X87777987Y-76036491D01*
X88047509Y-76306013D01*
X88364434Y-76517775D01*
X88716581Y-76663639D01*
X89090419Y-76738000D01*
X89471581Y-76738000D01*
X89845419Y-76663639D01*
X90079535Y-76566665D01*
X106261000Y-76566665D01*
X106261000Y-76849335D01*
X106316147Y-77126574D01*
X106424320Y-77387727D01*
X106581363Y-77622759D01*
X106781241Y-77822637D01*
X107016273Y-77979680D01*
X107277426Y-78087853D01*
X107554665Y-78143000D01*
X107837335Y-78143000D01*
X108114574Y-78087853D01*
X108375727Y-77979680D01*
X108610759Y-77822637D01*
X108810637Y-77622759D01*
X108967680Y-77387727D01*
X109075853Y-77126574D01*
X109131000Y-76849335D01*
X109131000Y-76566665D01*
X109075853Y-76289426D01*
X108967680Y-76028273D01*
X108810637Y-75793241D01*
X108610759Y-75593363D01*
X108375727Y-75436320D01*
X108114574Y-75328147D01*
X107837335Y-75273000D01*
X107554665Y-75273000D01*
X107277426Y-75328147D01*
X107016273Y-75436320D01*
X106781241Y-75593363D01*
X106581363Y-75793241D01*
X106424320Y-76028273D01*
X106316147Y-76289426D01*
X106261000Y-76566665D01*
X90079535Y-76566665D01*
X90197566Y-76517775D01*
X90514491Y-76306013D01*
X90784013Y-76036491D01*
X90995775Y-75719566D01*
X91141639Y-75367419D01*
X91216000Y-74993581D01*
X91216000Y-74612419D01*
X91141639Y-74238581D01*
X90995775Y-73886434D01*
X90784013Y-73569509D01*
X90514491Y-73299987D01*
X90197566Y-73088225D01*
X89845419Y-72942361D01*
X89788665Y-72931072D01*
X90581000Y-72931072D01*
X90705482Y-72918812D01*
X90825180Y-72882502D01*
X90935494Y-72823537D01*
X91032185Y-72744185D01*
X91111537Y-72647494D01*
X91170502Y-72537180D01*
X91206812Y-72417482D01*
X91219072Y-72293000D01*
X91219072Y-71486665D01*
X106261000Y-71486665D01*
X106261000Y-71769335D01*
X106316147Y-72046574D01*
X106424320Y-72307727D01*
X106581363Y-72542759D01*
X106781241Y-72742637D01*
X107016273Y-72899680D01*
X107277426Y-73007853D01*
X107554665Y-73063000D01*
X107837335Y-73063000D01*
X108114574Y-73007853D01*
X108375727Y-72899680D01*
X108610759Y-72742637D01*
X108810637Y-72542759D01*
X108967680Y-72307727D01*
X109075853Y-72046574D01*
X109131000Y-71769335D01*
X109131000Y-71486665D01*
X139281000Y-71486665D01*
X139281000Y-71769335D01*
X139336147Y-72046574D01*
X139444320Y-72307727D01*
X139601363Y-72542759D01*
X139801241Y-72742637D01*
X140036273Y-72899680D01*
X140297426Y-73007853D01*
X140574665Y-73063000D01*
X140857335Y-73063000D01*
X141134574Y-73007853D01*
X141395727Y-72899680D01*
X141630759Y-72742637D01*
X141830637Y-72542759D01*
X141987680Y-72307727D01*
X142095853Y-72046574D01*
X142151000Y-71769335D01*
X142151000Y-71486665D01*
X142095853Y-71209426D01*
X141987680Y-70948273D01*
X141830637Y-70713241D01*
X141630759Y-70513363D01*
X141395727Y-70356320D01*
X141134574Y-70248147D01*
X140857335Y-70193000D01*
X140574665Y-70193000D01*
X140297426Y-70248147D01*
X140036273Y-70356320D01*
X139801241Y-70513363D01*
X139601363Y-70713241D01*
X139444320Y-70948273D01*
X139336147Y-71209426D01*
X139281000Y-71486665D01*
X109131000Y-71486665D01*
X109075853Y-71209426D01*
X108967680Y-70948273D01*
X108810637Y-70713241D01*
X108610759Y-70513363D01*
X108375727Y-70356320D01*
X108114574Y-70248147D01*
X107837335Y-70193000D01*
X107554665Y-70193000D01*
X107277426Y-70248147D01*
X107016273Y-70356320D01*
X106781241Y-70513363D01*
X106581363Y-70713241D01*
X106424320Y-70948273D01*
X106316147Y-71209426D01*
X106261000Y-71486665D01*
X91219072Y-71486665D01*
X91219072Y-69693000D01*
X91206812Y-69568518D01*
X91170502Y-69448820D01*
X91111537Y-69338506D01*
X91032185Y-69241815D01*
X90935494Y-69162463D01*
X90825180Y-69103498D01*
X90705482Y-69067188D01*
X90581000Y-69054928D01*
X89783817Y-69054928D01*
X90071690Y-68959333D01*
X90318683Y-68827312D01*
X90450619Y-68532224D01*
X89281000Y-67362605D01*
X88111381Y-68532224D01*
X88243317Y-68827312D01*
X88584045Y-68998159D01*
X88790426Y-69054928D01*
X87981000Y-69054928D01*
X87856518Y-69067188D01*
X87736820Y-69103498D01*
X87626506Y-69162463D01*
X87529815Y-69241815D01*
X87450463Y-69338506D01*
X87391498Y-69448820D01*
X87355188Y-69568518D01*
X87342928Y-69693000D01*
X85496000Y-69693000D01*
X85496000Y-67233729D01*
X87337299Y-67233729D01*
X87384543Y-67611951D01*
X87504667Y-67973690D01*
X87636688Y-68220683D01*
X87931776Y-68352619D01*
X89101395Y-67183000D01*
X89460605Y-67183000D01*
X90630224Y-68352619D01*
X90925312Y-68220683D01*
X91096159Y-67879955D01*
X91197250Y-67512443D01*
X91224701Y-67132271D01*
X91177457Y-66754049D01*
X91057333Y-66392310D01*
X90925312Y-66145317D01*
X90630224Y-66013381D01*
X89460605Y-67183000D01*
X89101395Y-67183000D01*
X87931776Y-66013381D01*
X87636688Y-66145317D01*
X87465841Y-66486045D01*
X87364750Y-66853557D01*
X87337299Y-67233729D01*
X85496000Y-67233729D01*
X85496000Y-62073000D01*
X87342928Y-62073000D01*
X87342928Y-64673000D01*
X87355188Y-64797482D01*
X87391498Y-64917180D01*
X87450463Y-65027494D01*
X87529815Y-65124185D01*
X87626506Y-65203537D01*
X87736820Y-65262502D01*
X87856518Y-65298812D01*
X87981000Y-65311072D01*
X88778183Y-65311072D01*
X88490310Y-65406667D01*
X88243317Y-65538688D01*
X88111381Y-65833776D01*
X89281000Y-67003395D01*
X90450619Y-65833776D01*
X90318683Y-65538688D01*
X89977955Y-65367841D01*
X89771574Y-65311072D01*
X90581000Y-65311072D01*
X90705482Y-65298812D01*
X90825180Y-65262502D01*
X90935494Y-65203537D01*
X91032185Y-65124185D01*
X91111537Y-65027494D01*
X91170502Y-64917180D01*
X91206812Y-64797482D01*
X91219072Y-64673000D01*
X91219072Y-63108000D01*
X112507928Y-63108000D01*
X112507928Y-64908000D01*
X112520188Y-65032482D01*
X112556498Y-65152180D01*
X112615463Y-65262494D01*
X112694815Y-65359185D01*
X112791506Y-65438537D01*
X112901820Y-65497502D01*
X113021518Y-65533812D01*
X113146000Y-65546072D01*
X114946000Y-65546072D01*
X115070482Y-65533812D01*
X115190180Y-65497502D01*
X115300494Y-65438537D01*
X115397185Y-65359185D01*
X115476537Y-65262494D01*
X115535502Y-65152180D01*
X115571812Y-65032482D01*
X115584072Y-64908000D01*
X115584072Y-63108000D01*
X132827928Y-63108000D01*
X132827928Y-64908000D01*
X132840188Y-65032482D01*
X132876498Y-65152180D01*
X132935463Y-65262494D01*
X133014815Y-65359185D01*
X133111506Y-65438537D01*
X133221820Y-65497502D01*
X133341518Y-65533812D01*
X133466000Y-65546072D01*
X135266000Y-65546072D01*
X135390482Y-65533812D01*
X135510180Y-65497502D01*
X135620494Y-65438537D01*
X135717185Y-65359185D01*
X135796537Y-65262494D01*
X135855502Y-65152180D01*
X135891812Y-65032482D01*
X135904072Y-64908000D01*
X135904072Y-63108000D01*
X135891812Y-62983518D01*
X135855502Y-62863820D01*
X135796537Y-62753506D01*
X135717185Y-62656815D01*
X135620494Y-62577463D01*
X135510180Y-62518498D01*
X135491873Y-62512944D01*
X135558312Y-62446505D01*
X135726299Y-62195095D01*
X135842011Y-61915743D01*
X135901000Y-61619184D01*
X135901000Y-61326665D01*
X139281000Y-61326665D01*
X139281000Y-61609335D01*
X139336147Y-61886574D01*
X139444320Y-62147727D01*
X139601363Y-62382759D01*
X139801241Y-62582637D01*
X140036273Y-62739680D01*
X140297426Y-62847853D01*
X140574665Y-62903000D01*
X140857335Y-62903000D01*
X141134574Y-62847853D01*
X141395727Y-62739680D01*
X141630759Y-62582637D01*
X141830637Y-62382759D01*
X141987680Y-62147727D01*
X142095853Y-61886574D01*
X142151000Y-61609335D01*
X142151000Y-61326665D01*
X142095853Y-61049426D01*
X141987680Y-60788273D01*
X141830637Y-60553241D01*
X141630759Y-60353363D01*
X141395727Y-60196320D01*
X141134574Y-60088147D01*
X140857335Y-60033000D01*
X140574665Y-60033000D01*
X140297426Y-60088147D01*
X140036273Y-60196320D01*
X139801241Y-60353363D01*
X139601363Y-60553241D01*
X139444320Y-60788273D01*
X139336147Y-61049426D01*
X139281000Y-61326665D01*
X135901000Y-61326665D01*
X135901000Y-61316816D01*
X135842011Y-61020257D01*
X135726299Y-60740905D01*
X135558312Y-60489495D01*
X135344505Y-60275688D01*
X135093095Y-60107701D01*
X134813743Y-59991989D01*
X134517184Y-59933000D01*
X134214816Y-59933000D01*
X133918257Y-59991989D01*
X133638905Y-60107701D01*
X133387495Y-60275688D01*
X133173688Y-60489495D01*
X133005701Y-60740905D01*
X132889989Y-61020257D01*
X132831000Y-61316816D01*
X132831000Y-61619184D01*
X132889989Y-61915743D01*
X133005701Y-62195095D01*
X133173688Y-62446505D01*
X133240127Y-62512944D01*
X133221820Y-62518498D01*
X133111506Y-62577463D01*
X133014815Y-62656815D01*
X132935463Y-62753506D01*
X132876498Y-62863820D01*
X132840188Y-62983518D01*
X132827928Y-63108000D01*
X115584072Y-63108000D01*
X115571812Y-62983518D01*
X115535502Y-62863820D01*
X115476537Y-62753506D01*
X115397185Y-62656815D01*
X115300494Y-62577463D01*
X115190180Y-62518498D01*
X115171873Y-62512944D01*
X115238312Y-62446505D01*
X115406299Y-62195095D01*
X115522011Y-61915743D01*
X115581000Y-61619184D01*
X115581000Y-61316816D01*
X115522011Y-61020257D01*
X115406299Y-60740905D01*
X115238312Y-60489495D01*
X115024505Y-60275688D01*
X114773095Y-60107701D01*
X114493743Y-59991989D01*
X114197184Y-59933000D01*
X113894816Y-59933000D01*
X113598257Y-59991989D01*
X113318905Y-60107701D01*
X113067495Y-60275688D01*
X112853688Y-60489495D01*
X112685701Y-60740905D01*
X112569989Y-61020257D01*
X112511000Y-61316816D01*
X112511000Y-61619184D01*
X112569989Y-61915743D01*
X112685701Y-62195095D01*
X112853688Y-62446505D01*
X112920127Y-62512944D01*
X112901820Y-62518498D01*
X112791506Y-62577463D01*
X112694815Y-62656815D01*
X112615463Y-62753506D01*
X112556498Y-62863820D01*
X112520188Y-62983518D01*
X112507928Y-63108000D01*
X91219072Y-63108000D01*
X91219072Y-62073000D01*
X91206812Y-61948518D01*
X91170502Y-61828820D01*
X91111537Y-61718506D01*
X91032185Y-61621815D01*
X90935494Y-61542463D01*
X90825180Y-61483498D01*
X90705482Y-61447188D01*
X90581000Y-61434928D01*
X87981000Y-61434928D01*
X87856518Y-61447188D01*
X87736820Y-61483498D01*
X87626506Y-61542463D01*
X87529815Y-61621815D01*
X87450463Y-61718506D01*
X87391498Y-61828820D01*
X87355188Y-61948518D01*
X87342928Y-62073000D01*
X85496000Y-62073000D01*
X85496000Y-61326665D01*
X106261000Y-61326665D01*
X106261000Y-61609335D01*
X106316147Y-61886574D01*
X106424320Y-62147727D01*
X106581363Y-62382759D01*
X106781241Y-62582637D01*
X107016273Y-62739680D01*
X107277426Y-62847853D01*
X107554665Y-62903000D01*
X107837335Y-62903000D01*
X108114574Y-62847853D01*
X108375727Y-62739680D01*
X108610759Y-62582637D01*
X108810637Y-62382759D01*
X108967680Y-62147727D01*
X109075853Y-61886574D01*
X109131000Y-61609335D01*
X109131000Y-61326665D01*
X109075853Y-61049426D01*
X108967680Y-60788273D01*
X108810637Y-60553241D01*
X108610759Y-60353363D01*
X108375727Y-60196320D01*
X108114574Y-60088147D01*
X107837335Y-60033000D01*
X107554665Y-60033000D01*
X107277426Y-60088147D01*
X107016273Y-60196320D01*
X106781241Y-60353363D01*
X106581363Y-60553241D01*
X106424320Y-60788273D01*
X106316147Y-61049426D01*
X106261000Y-61326665D01*
X85496000Y-61326665D01*
X85496000Y-56388000D01*
X96395509Y-56388000D01*
X96417423Y-56610499D01*
X96482324Y-56824447D01*
X96587716Y-57021623D01*
X96729551Y-57194449D01*
X96902377Y-57336284D01*
X97099553Y-57441676D01*
X97313501Y-57506577D01*
X97480248Y-57523000D01*
X106811716Y-57523000D01*
X107016273Y-57659680D01*
X107277426Y-57767853D01*
X107554665Y-57823000D01*
X107837335Y-57823000D01*
X108114574Y-57767853D01*
X108375727Y-57659680D01*
X108610759Y-57502637D01*
X108810637Y-57302759D01*
X108967680Y-57067727D01*
X109075853Y-56806574D01*
X109131000Y-56529335D01*
X109131000Y-56246665D01*
X139281000Y-56246665D01*
X139281000Y-56529335D01*
X139336147Y-56806574D01*
X139444320Y-57067727D01*
X139601363Y-57302759D01*
X139801241Y-57502637D01*
X140036273Y-57659680D01*
X140297426Y-57767853D01*
X140574665Y-57823000D01*
X140857335Y-57823000D01*
X141134574Y-57767853D01*
X141395727Y-57659680D01*
X141630759Y-57502637D01*
X141830637Y-57302759D01*
X141987680Y-57067727D01*
X142095853Y-56806574D01*
X142151000Y-56529335D01*
X142151000Y-56246665D01*
X142095853Y-55969426D01*
X141987680Y-55708273D01*
X141830637Y-55473241D01*
X141630759Y-55273363D01*
X141395727Y-55116320D01*
X141134574Y-55008147D01*
X140857335Y-54953000D01*
X140574665Y-54953000D01*
X140297426Y-55008147D01*
X140036273Y-55116320D01*
X139801241Y-55273363D01*
X139601363Y-55473241D01*
X139444320Y-55708273D01*
X139336147Y-55969426D01*
X139281000Y-56246665D01*
X109131000Y-56246665D01*
X109075853Y-55969426D01*
X108967680Y-55708273D01*
X108810637Y-55473241D01*
X108610759Y-55273363D01*
X108375727Y-55116320D01*
X108114574Y-55008147D01*
X107837335Y-54953000D01*
X107554665Y-54953000D01*
X107277426Y-55008147D01*
X107016273Y-55116320D01*
X106811716Y-55253000D01*
X97480248Y-55253000D01*
X97313501Y-55269423D01*
X97099553Y-55334324D01*
X96902377Y-55439716D01*
X96729551Y-55581551D01*
X96587716Y-55754377D01*
X96482324Y-55951553D01*
X96417423Y-56165501D01*
X96395509Y-56388000D01*
X85496000Y-56388000D01*
X85496000Y-48698456D01*
X87393000Y-48698456D01*
X87393000Y-49345544D01*
X87519240Y-49980199D01*
X87766871Y-50578031D01*
X88126374Y-51116066D01*
X88583934Y-51573626D01*
X89121969Y-51933129D01*
X89719801Y-52180760D01*
X90354456Y-52307000D01*
X91001544Y-52307000D01*
X91636199Y-52180760D01*
X92234031Y-51933129D01*
X92772066Y-51573626D01*
X93229626Y-51116066D01*
X93589129Y-50578031D01*
X93836760Y-49980199D01*
X93963000Y-49345544D01*
X93963000Y-48698456D01*
X93836760Y-48063801D01*
X93755657Y-47868000D01*
X112507928Y-47868000D01*
X112507928Y-49668000D01*
X112520188Y-49792482D01*
X112556498Y-49912180D01*
X112615463Y-50022494D01*
X112694815Y-50119185D01*
X112791506Y-50198537D01*
X112901820Y-50257502D01*
X113021518Y-50293812D01*
X113146000Y-50306072D01*
X114946000Y-50306072D01*
X115070482Y-50293812D01*
X115190180Y-50257502D01*
X115300494Y-50198537D01*
X115397185Y-50119185D01*
X115476537Y-50022494D01*
X115535502Y-49912180D01*
X115571812Y-49792482D01*
X115584072Y-49668000D01*
X115584072Y-47868000D01*
X132827928Y-47868000D01*
X132827928Y-49668000D01*
X132840188Y-49792482D01*
X132876498Y-49912180D01*
X132935463Y-50022494D01*
X133014815Y-50119185D01*
X133111506Y-50198537D01*
X133221820Y-50257502D01*
X133341518Y-50293812D01*
X133466000Y-50306072D01*
X135266000Y-50306072D01*
X135390482Y-50293812D01*
X135510180Y-50257502D01*
X135620494Y-50198537D01*
X135717185Y-50119185D01*
X135796537Y-50022494D01*
X135855502Y-49912180D01*
X135891812Y-49792482D01*
X135904072Y-49668000D01*
X135904072Y-48698456D01*
X147337000Y-48698456D01*
X147337000Y-49345544D01*
X147463240Y-49980199D01*
X147710871Y-50578031D01*
X148070374Y-51116066D01*
X148527934Y-51573626D01*
X149065969Y-51933129D01*
X149663801Y-52180760D01*
X150298456Y-52307000D01*
X150945544Y-52307000D01*
X151580199Y-52180760D01*
X152178031Y-51933129D01*
X152716066Y-51573626D01*
X153173626Y-51116066D01*
X153533129Y-50578031D01*
X153780760Y-49980199D01*
X153907000Y-49345544D01*
X153907000Y-48698456D01*
X153780760Y-48063801D01*
X153533129Y-47465969D01*
X153173626Y-46927934D01*
X152716066Y-46470374D01*
X152178031Y-46110871D01*
X151580199Y-45863240D01*
X150945544Y-45737000D01*
X150298456Y-45737000D01*
X149663801Y-45863240D01*
X149065969Y-46110871D01*
X148527934Y-46470374D01*
X148070374Y-46927934D01*
X147710871Y-47465969D01*
X147463240Y-48063801D01*
X147337000Y-48698456D01*
X135904072Y-48698456D01*
X135904072Y-47868000D01*
X135891812Y-47743518D01*
X135855502Y-47623820D01*
X135796537Y-47513506D01*
X135717185Y-47416815D01*
X135620494Y-47337463D01*
X135510180Y-47278498D01*
X135491873Y-47272944D01*
X135558312Y-47206505D01*
X135726299Y-46955095D01*
X135842011Y-46675743D01*
X135901000Y-46379184D01*
X135901000Y-46086665D01*
X139281000Y-46086665D01*
X139281000Y-46369335D01*
X139336147Y-46646574D01*
X139444320Y-46907727D01*
X139601363Y-47142759D01*
X139801241Y-47342637D01*
X140036273Y-47499680D01*
X140297426Y-47607853D01*
X140574665Y-47663000D01*
X140857335Y-47663000D01*
X141134574Y-47607853D01*
X141395727Y-47499680D01*
X141630759Y-47342637D01*
X141830637Y-47142759D01*
X141987680Y-46907727D01*
X142095853Y-46646574D01*
X142151000Y-46369335D01*
X142151000Y-46086665D01*
X142095853Y-45809426D01*
X141987680Y-45548273D01*
X141830637Y-45313241D01*
X141630759Y-45113363D01*
X141395727Y-44956320D01*
X141134574Y-44848147D01*
X140857335Y-44793000D01*
X140574665Y-44793000D01*
X140297426Y-44848147D01*
X140036273Y-44956320D01*
X139801241Y-45113363D01*
X139601363Y-45313241D01*
X139444320Y-45548273D01*
X139336147Y-45809426D01*
X139281000Y-46086665D01*
X135901000Y-46086665D01*
X135901000Y-46076816D01*
X135842011Y-45780257D01*
X135726299Y-45500905D01*
X135558312Y-45249495D01*
X135344505Y-45035688D01*
X135093095Y-44867701D01*
X134813743Y-44751989D01*
X134517184Y-44693000D01*
X134214816Y-44693000D01*
X133918257Y-44751989D01*
X133638905Y-44867701D01*
X133387495Y-45035688D01*
X133173688Y-45249495D01*
X133005701Y-45500905D01*
X132889989Y-45780257D01*
X132831000Y-46076816D01*
X132831000Y-46379184D01*
X132889989Y-46675743D01*
X133005701Y-46955095D01*
X133173688Y-47206505D01*
X133240127Y-47272944D01*
X133221820Y-47278498D01*
X133111506Y-47337463D01*
X133014815Y-47416815D01*
X132935463Y-47513506D01*
X132876498Y-47623820D01*
X132840188Y-47743518D01*
X132827928Y-47868000D01*
X115584072Y-47868000D01*
X115571812Y-47743518D01*
X115535502Y-47623820D01*
X115476537Y-47513506D01*
X115397185Y-47416815D01*
X115300494Y-47337463D01*
X115190180Y-47278498D01*
X115171873Y-47272944D01*
X115238312Y-47206505D01*
X115406299Y-46955095D01*
X115522011Y-46675743D01*
X115581000Y-46379184D01*
X115581000Y-46076816D01*
X115522011Y-45780257D01*
X115406299Y-45500905D01*
X115238312Y-45249495D01*
X115024505Y-45035688D01*
X114773095Y-44867701D01*
X114493743Y-44751989D01*
X114197184Y-44693000D01*
X113894816Y-44693000D01*
X113598257Y-44751989D01*
X113318905Y-44867701D01*
X113067495Y-45035688D01*
X112853688Y-45249495D01*
X112685701Y-45500905D01*
X112569989Y-45780257D01*
X112511000Y-46076816D01*
X112511000Y-46379184D01*
X112569989Y-46675743D01*
X112685701Y-46955095D01*
X112853688Y-47206505D01*
X112920127Y-47272944D01*
X112901820Y-47278498D01*
X112791506Y-47337463D01*
X112694815Y-47416815D01*
X112615463Y-47513506D01*
X112556498Y-47623820D01*
X112520188Y-47743518D01*
X112507928Y-47868000D01*
X93755657Y-47868000D01*
X93589129Y-47465969D01*
X93229626Y-46927934D01*
X92772066Y-46470374D01*
X92234031Y-46110871D01*
X92175593Y-46086665D01*
X106261000Y-46086665D01*
X106261000Y-46369335D01*
X106316147Y-46646574D01*
X106424320Y-46907727D01*
X106581363Y-47142759D01*
X106781241Y-47342637D01*
X107016273Y-47499680D01*
X107277426Y-47607853D01*
X107554665Y-47663000D01*
X107837335Y-47663000D01*
X108114574Y-47607853D01*
X108375727Y-47499680D01*
X108610759Y-47342637D01*
X108810637Y-47142759D01*
X108967680Y-46907727D01*
X109075853Y-46646574D01*
X109131000Y-46369335D01*
X109131000Y-46086665D01*
X109075853Y-45809426D01*
X108967680Y-45548273D01*
X108810637Y-45313241D01*
X108610759Y-45113363D01*
X108375727Y-44956320D01*
X108114574Y-44848147D01*
X107837335Y-44793000D01*
X107554665Y-44793000D01*
X107277426Y-44848147D01*
X107016273Y-44956320D01*
X106781241Y-45113363D01*
X106581363Y-45313241D01*
X106424320Y-45548273D01*
X106316147Y-45809426D01*
X106261000Y-46086665D01*
X92175593Y-46086665D01*
X91636199Y-45863240D01*
X91001544Y-45737000D01*
X90354456Y-45737000D01*
X89719801Y-45863240D01*
X89121969Y-46110871D01*
X88583934Y-46470374D01*
X88126374Y-46927934D01*
X87766871Y-47465969D01*
X87519240Y-48063801D01*
X87393000Y-48698456D01*
X85496000Y-48698456D01*
X85496000Y-42824000D01*
X155804000Y-42824000D01*
X155804001Y-149200000D01*
%TD*%
M02*
